<svg xmlns="http://www.w3.org/2000/svg" version="1.1" xmlns:xlink="http://www.w3.org/1999/xlink" xmlns:svgjs="http://svgjs.dev/svgjs" width="1000" height="1000" viewBox="0 0 1000 1000"><rect width="1000" height="1000" fill="#000000"></rect><g transform="matrix(0.7,0,0,0.7,150.07466666666664,274.9507329663795)"><svg viewBox="0 0 375 241" data-background-color="#046380" preserveAspectRatio="xMidYMid meet" height="642" width="1000" xmlns="http://www.w3.org/2000/svg" xmlns:xlink="http://www.w3.org/1999/xlink"><g id="tight-bounds" transform="matrix(1,0,0,1,-0.03976036071776434,0.1873016357421875)"><svg viewBox="0 0 375.07952880859375 240.62539672851562" height="240.62539672851562" width="375.07952880859375"><g><svg></svg></g><g><svg viewBox="0 0 375.07952880859375 240.62539672851562" height="240.62539672851562" width="375.07952880859375"><g transform="matrix(1,0,0,1,-10.220239639282227,-6.574615478515625)"><path xmlns="http://www.w3.org/2000/svg" d="M10.22 240.625v-234.05h375.08v234.05l-130.227 0v-3.759h126.468v-226.532h-367.562v226.532h24.993l0 3.759z" fill="#ffffff" fill-rule="nonzero" stroke="none" stroke-width="1" stroke-linecap="butt" stroke-linejoin="miter" stroke-miterlimit="10" stroke-dasharray="" stroke-dashoffset="0" font-family="none" font-weight="none" font-size="none" text-anchor="none" style="mix-blend-mode: normal" data-fill-palette-color="tertiary"></path><g><path xmlns="http://www.w3.org/2000/svg" d="M57.335 240.195v0c0 0.253-0.053 0.482-0.16 0.687-0.106 0.205-0.253 0.379-0.441 0.521v0c-0.195 0.142-0.426 0.251-0.691 0.326-0.263 0.077-0.56 0.116-0.89 0.116v0c-0.376 0-0.722-0.043-1.039-0.131-0.316-0.089-0.589-0.226-0.818-0.408v0c-0.229-0.188-0.41-0.423-0.542-0.706-0.133-0.282-0.207-0.618-0.225-1.006v0h-2.279c0.005 0.642 0.133 1.205 0.383 1.69 0.251 0.487 0.591 0.909 1.021 1.266v0c0.461 0.371 1 0.655 1.617 0.851 0.618 0.193 1.245 0.289 1.882 0.289v0c0.625 0 1.21-0.076 1.755-0.228 0.543-0.154 1.014-0.381 1.414-0.68v0c0.408-0.302 0.727-0.669 0.959-1.104 0.234-0.437 0.351-0.937 0.351-1.501v0c0-0.642-0.145-1.206-0.434-1.694-0.289-0.485-0.675-0.907-1.158-1.266v0c-0.347-0.253-0.729-0.472-1.143-0.655-0.415-0.183-0.849-0.339-1.303-0.467v0c-0.384-0.106-0.738-0.223-1.064-0.351-0.328-0.125-0.613-0.271-0.854-0.438v0c-0.241-0.152-0.428-0.333-0.56-0.543-0.133-0.207-0.199-0.447-0.199-0.72v0c0-0.253 0.051-0.484 0.152-0.691 0.099-0.21 0.242-0.391 0.43-0.542v0c0.188-0.147 0.415-0.263 0.68-0.348 0.265-0.082 0.561-0.123 0.887-0.123v0c0.364 0 0.685 0.052 0.962 0.156 0.275 0.104 0.51 0.246 0.706 0.427v0c0.183 0.183 0.326 0.402 0.427 0.655 0.104 0.253 0.164 0.533 0.181 0.839v0h2.261c0-0.577-0.113-1.107-0.34-1.592-0.227-0.482-0.54-0.897-0.941-1.245v0c-0.4-0.347-0.876-0.616-1.425-0.807-0.55-0.193-1.149-0.289-1.799-0.289v0c-0.618 0-1.198 0.083-1.74 0.25-0.54 0.164-1.011 0.403-1.411 0.716v0c-0.408 0.306-0.727 0.68-0.959 1.122-0.234 0.441-0.351 0.932-0.351 1.472v0c0 0.49 0.094 0.936 0.282 1.339 0.191 0.403 0.462 0.767 0.814 1.093v0c0.347 0.323 0.783 0.616 1.307 0.879 0.526 0.261 1.118 0.482 1.776 0.666v0c0.429 0.118 0.802 0.247 1.118 0.387 0.316 0.142 0.579 0.299 0.789 0.471v0c0.207 0.183 0.361 0.382 0.46 0.597 0.101 0.215 0.152 0.455 0.152 0.72zM61.214 238.657v0 0.184c0 0.702 0.1 1.348 0.3 1.94 0.2 0.591 0.495 1.105 0.883 1.541v0c0.376 0.437 0.843 0.777 1.4 1.021 0.557 0.244 1.192 0.365 1.903 0.365v0c0.707 0 1.336-0.122 1.889-0.365 0.555-0.244 1.024-0.584 1.408-1.021v0c0.376-0.437 0.665-0.95 0.865-1.541 0.2-0.591 0.3-1.238 0.3-1.94v0-0.184c0-0.695-0.1-1.339-0.3-1.932-0.2-0.591-0.488-1.105-0.865-1.542v0c-0.391-0.434-0.862-0.776-1.415-1.024-0.555-0.246-1.188-0.369-1.9-0.369v0c-0.707 0-1.336 0.123-1.888 0.369-0.555 0.248-1.02 0.59-1.397 1.024v0c-0.388 0.437-0.683 0.95-0.883 1.542-0.2 0.593-0.3 1.238-0.3 1.932zM63.493 238.841v0-0.184c0-0.408 0.042-0.792 0.127-1.154 0.084-0.362 0.216-0.681 0.394-0.959v0c0.176-0.282 0.403-0.503 0.68-0.662 0.275-0.159 0.604-0.239 0.988-0.239v0c0.388 0 0.721 0.08 0.999 0.239 0.277 0.159 0.504 0.38 0.68 0.662v0c0.171 0.277 0.299 0.597 0.384 0.959 0.087 0.362 0.13 0.747 0.13 1.154v0 0.184c0 0.417-0.043 0.809-0.13 1.176-0.084 0.364-0.212 0.681-0.384 0.952v0c-0.176 0.285-0.403 0.507-0.68 0.666-0.277 0.157-0.604 0.235-0.981 0.235v0c-0.388 0-0.722-0.078-1.002-0.235-0.28-0.159-0.508-0.381-0.684-0.666v0c-0.179-0.27-0.31-0.587-0.394-0.952-0.084-0.367-0.127-0.759-0.127-1.176zM74.815 235.661v7.863h2.298v-7.863h3.499v-1.697h-3.499v-0.554c0-0.306 0.04-0.579 0.119-0.818 0.08-0.239 0.203-0.438 0.369-0.597v0c0.169-0.183 0.398-0.322 0.688-0.416 0.289-0.094 0.637-0.141 1.042-0.141v0c0.376 0 0.71 0.021 1.002 0.062 0.292 0.041 0.55 0.088 0.775 0.141v0l0.166-1.802c-0.188-0.041-0.37-0.076-0.546-0.105-0.176-0.029-0.353-0.055-0.532-0.08v0c-0.193-0.029-0.388-0.053-0.586-0.072-0.198-0.017-0.403-0.025-0.615-0.025v0c-0.634 0-1.21 0.084-1.726 0.253-0.516 0.166-0.956 0.412-1.321 0.738v0c-0.359 0.328-0.638 0.731-0.836 1.209-0.198 0.478-0.297 1.029-0.297 1.653v0 0.554h-2.533v1.697zM87.661 233.964v-2.33h-2.287v2.33h-2.254v1.697h2.254v4.523c0 0.625 0.081 1.158 0.242 1.599 0.162 0.441 0.393 0.803 0.695 1.086v0c0.294 0.289 0.649 0.502 1.064 0.637 0.415 0.135 0.873 0.203 1.375 0.202v0c0.27 0 0.542-0.013 0.814-0.04 0.275-0.027 0.539-0.063 0.792-0.108v0c0.253-0.048 0.49-0.107 0.71-0.177 0.222-0.07 0.415-0.152 0.579-0.246v0l-0.239-1.582c-0.104 0.029-0.234 0.058-0.391 0.087-0.157 0.029-0.323 0.055-0.499 0.08v0c-0.183 0.029-0.374 0.054-0.572 0.076-0.195 0.019-0.385 0.029-0.568 0.029v0c-0.253 0-0.486-0.029-0.699-0.087-0.212-0.06-0.394-0.164-0.546-0.311v0c-0.147-0.135-0.263-0.318-0.347-0.55-0.082-0.234-0.123-0.527-0.123-0.88v0-4.338h3.578v-1.697zM93.114 233.964l1.783 9.56h1.969l1.114-5.265 0.203-1.078 0.213 1.078 1.148 5.265h1.968l1.787-9.56h-2.087l-0.775 5.735-0.152 1.049-0.184-1.042-1.14-5.742h-1.52l-1.132 5.771-0.185 1.006-0.13-1.006-0.796-5.771zM111.036 243.524v0h2.334v-0.152c-0.123-0.246-0.216-0.538-0.279-0.876-0.063-0.34-0.094-0.745-0.094-1.216v0-4.168c0-0.555-0.103-1.04-0.308-1.455-0.207-0.415-0.487-0.761-0.839-1.038v0c-0.367-0.277-0.794-0.485-1.281-0.623-0.49-0.138-1.02-0.206-1.592-0.206v0c-0.63 0-1.19 0.081-1.683 0.243-0.492 0.162-0.908 0.381-1.248 0.658v0c-0.343 0.275-0.603 0.591-0.782 0.948-0.181 0.357-0.271 0.732-0.271 1.125v0h2.29c0-0.176 0.029-0.339 0.087-0.488 0.058-0.15 0.15-0.277 0.275-0.384v0c0.128-0.118 0.294-0.21 0.5-0.275 0.203-0.065 0.439-0.098 0.709-0.097v0c0.306 0 0.577 0.039 0.81 0.116 0.232 0.077 0.427 0.186 0.586 0.325v0c0.152 0.135 0.267 0.297 0.344 0.485 0.077 0.191 0.116 0.406 0.116 0.648v0 0.6h-1.458c-0.695 0-1.315 0.063-1.86 0.189-0.545 0.128-1.002 0.315-1.371 0.56v0c-0.408 0.265-0.714 0.602-0.92 1.01-0.207 0.405-0.311 0.873-0.311 1.404v0c0 0.405 0.081 0.783 0.243 1.132 0.162 0.352 0.391 0.655 0.687 0.909v0c0.287 0.253 0.636 0.45 1.046 0.589 0.41 0.142 0.862 0.213 1.357 0.214v0c0.299 0 0.581-0.03 0.847-0.09 0.265-0.058 0.51-0.138 0.734-0.239v0c0.217-0.099 0.417-0.215 0.601-0.348 0.181-0.133 0.343-0.275 0.485-0.427v0c0.024 0.176 0.057 0.345 0.097 0.507 0.041 0.162 0.09 0.302 0.149 0.42zM108.582 241.899v0c-0.248 0-0.467-0.031-0.655-0.094-0.188-0.06-0.345-0.141-0.47-0.242v0c-0.128-0.111-0.224-0.245-0.289-0.402-0.065-0.157-0.098-0.326-0.098-0.507v0c0-0.224 0.042-0.431 0.127-0.618 0.087-0.188 0.216-0.351 0.387-0.489v0c0.188-0.147 0.432-0.258 0.731-0.333 0.302-0.077 0.665-0.116 1.089-0.116v0h1.306v1.705c-0.077 0.135-0.182 0.269-0.315 0.401-0.133 0.133-0.289 0.25-0.47 0.351v0c-0.183 0.106-0.387 0.189-0.612 0.25-0.224 0.063-0.468 0.094-0.731 0.094zM122.6 233.79v0c-0.654 0-1.252 0.154-1.795 0.463-0.54 0.309-1.005 0.731-1.393 1.267v0l-0.018-0.221-0.097-1.335h-2.128v9.56h2.287v-5.822c0.106-0.277 0.245-0.52 0.416-0.728 0.169-0.21 0.371-0.382 0.608-0.517v0c0.207-0.13 0.446-0.228 0.716-0.293 0.27-0.065 0.573-0.098 0.908-0.098v0c0.306 0 0.624 0.019 0.952 0.058 0.326 0.039 0.651 0.096 0.977 0.174v0l0.333-2.273c-0.188-0.063-0.441-0.118-0.76-0.166-0.316-0.046-0.651-0.069-1.006-0.069zM131.266 243.701v0c0.924 0 1.72-0.181 2.388-0.543 0.671-0.362 1.162-0.77 1.473-1.223v0l-1.176-1.212c-0.287 0.371-0.657 0.654-1.111 0.847-0.454 0.195-0.931 0.293-1.433 0.293v0c-0.364 0-0.698-0.059-1.002-0.177-0.304-0.118-0.573-0.283-0.807-0.496v0c-0.224-0.205-0.403-0.437-0.535-0.695-0.133-0.261-0.238-0.591-0.315-0.991v0-0.037h6.564v-0.969c0-0.695-0.094-1.333-0.283-1.914-0.188-0.579-0.464-1.075-0.828-1.488v0c-0.371-0.412-0.824-0.733-1.357-0.962-0.533-0.229-1.145-0.344-1.835-0.344v0c-0.642 0-1.241 0.118-1.798 0.355-0.555 0.239-1.038 0.574-1.451 1.006v0c-0.412 0.434-0.736 0.953-0.97 1.556-0.232 0.605-0.347 1.279-0.347 2.019v0 0.354c0 0.649 0.115 1.254 0.344 1.817 0.229 0.562 0.556 1.049 0.98 1.462v0c0.425 0.417 0.932 0.745 1.524 0.984 0.593 0.239 1.252 0.358 1.975 0.358zM130.991 235.643v0c0.338 0 0.631 0.054 0.88 0.163 0.251 0.111 0.464 0.257 0.64 0.437v0c0.171 0.183 0.305 0.402 0.402 0.655 0.099 0.253 0.148 0.513 0.148 0.778v0 0.178h-4.259c0.058-0.343 0.151-0.649 0.279-0.919 0.125-0.273 0.282-0.505 0.47-0.699v0c0.183-0.195 0.397-0.343 0.641-0.441 0.246-0.101 0.513-0.152 0.799-0.152zM148.28 230.66v12.864h3.358c0.584 0 1.13-0.071 1.639-0.214 0.509-0.14 0.972-0.343 1.39-0.608v0c0.367-0.229 0.703-0.514 1.009-0.854 0.306-0.338 0.571-0.709 0.793-1.114v0c0.232-0.437 0.409-0.919 0.532-1.448 0.123-0.526 0.185-1.081 0.184-1.664v0-1.042c0-0.613-0.066-1.189-0.199-1.73-0.133-0.543-0.322-1.038-0.568-1.487v0c-0.224-0.4-0.495-0.765-0.811-1.093-0.314-0.33-0.671-0.608-1.071-0.832v0c-0.42-0.246-0.879-0.438-1.378-0.575-0.502-0.135-1.041-0.203-1.618-0.203v0zM150.603 241.667v-9.132h0.937c0.323 0 0.622 0.036 0.898 0.108 0.273 0.075 0.521 0.177 0.745 0.308v0c0.302 0.169 0.562 0.391 0.782 0.665 0.222 0.273 0.4 0.584 0.535 0.934v0c0.111 0.287 0.195 0.601 0.253 0.941 0.055 0.338 0.086 0.695 0.091 1.071v0 1.06c-0.005 0.396-0.035 0.763-0.091 1.104-0.058 0.343-0.14 0.655-0.246 0.937v0c-0.128 0.335-0.288 0.63-0.481 0.883-0.191 0.253-0.41 0.463-0.658 0.629v0c-0.234 0.159-0.496 0.281-0.786 0.366-0.287 0.084-0.602 0.127-0.944 0.126v0zM163.839 243.701v0c0.924 0 1.72-0.181 2.388-0.543 0.668-0.362 1.158-0.77 1.47-1.223v0l-1.173-1.212c-0.289 0.371-0.661 0.654-1.114 0.847-0.454 0.195-0.93 0.293-1.43 0.293v0c-0.367 0-0.702-0.059-1.005-0.177-0.302-0.118-0.571-0.283-0.807-0.496v0c-0.224-0.205-0.403-0.437-0.536-0.695-0.133-0.261-0.236-0.591-0.311-0.991v0-0.037h6.564v-0.969c0-0.695-0.094-1.333-0.283-1.914-0.191-0.579-0.468-1.075-0.832-1.488v0c-0.371-0.412-0.824-0.733-1.357-0.962-0.533-0.229-1.143-0.344-1.831-0.344v0c-0.642 0-1.241 0.118-1.798 0.355-0.557 0.239-1.042 0.574-1.455 1.006v0c-0.412 0.434-0.735 0.953-0.966 1.556-0.232 0.605-0.347 1.279-0.347 2.019v0 0.354c0 0.649 0.115 1.254 0.344 1.817 0.229 0.562 0.556 1.049 0.98 1.462v0c0.425 0.417 0.932 0.745 1.524 0.984 0.591 0.239 1.25 0.358 1.975 0.358zM163.564 235.643v0c0.335 0 0.628 0.054 0.88 0.163 0.251 0.111 0.464 0.257 0.64 0.437v0c0.171 0.183 0.305 0.402 0.402 0.655 0.096 0.253 0.145 0.513 0.144 0.778v0 0.178h-4.258c0.06-0.343 0.153-0.649 0.278-0.919 0.128-0.273 0.286-0.505 0.474-0.699v0c0.183-0.195 0.397-0.343 0.641-0.441 0.244-0.101 0.51-0.152 0.799-0.152zM169.517 233.964l3.712 9.56h2.084l3.684-9.56h-2.377l-2.208 6.839-0.141 0.655-0.134-0.655-2.243-6.839zM185.554 243.701v0c0.924 0 1.72-0.181 2.388-0.543 0.668-0.362 1.158-0.77 1.469-1.223v0l-1.173-1.212c-0.289 0.371-0.661 0.654-1.114 0.847-0.454 0.195-0.93 0.293-1.429 0.293v0c-0.367 0-0.702-0.059-1.006-0.177-0.302-0.118-0.571-0.283-0.807-0.496v0c-0.224-0.205-0.403-0.437-0.536-0.695-0.133-0.261-0.236-0.591-0.311-0.991v0-0.037h6.564v-0.969c0-0.695-0.094-1.333-0.282-1.914-0.191-0.579-0.468-1.075-0.833-1.488v0c-0.371-0.412-0.824-0.733-1.356-0.962-0.533-0.229-1.143-0.344-1.831-0.344v0c-0.642 0-1.241 0.118-1.799 0.355-0.557 0.239-1.042 0.574-1.454 1.006v0c-0.412 0.434-0.735 0.953-0.966 1.556-0.232 0.605-0.347 1.279-0.348 2.019v0 0.354c0 0.649 0.115 1.254 0.344 1.817 0.229 0.562 0.556 1.049 0.98 1.462v0c0.422 0.417 0.93 0.745 1.524 0.984 0.591 0.239 1.25 0.358 1.975 0.358zM185.279 235.643v0c0.335 0 0.628 0.054 0.879 0.163 0.251 0.111 0.464 0.257 0.64 0.437v0c0.171 0.183 0.305 0.402 0.402 0.655 0.096 0.253 0.145 0.513 0.145 0.778v0 0.178h-4.259c0.06-0.343 0.153-0.649 0.278-0.919 0.128-0.273 0.286-0.505 0.474-0.699v0c0.183-0.195 0.397-0.343 0.641-0.441 0.244-0.101 0.51-0.152 0.8-0.152zM197.567 229.955h-5.247v1.881h2.942v9.813h-2.942v1.875h8.065v-1.875h-2.818zM202.354 238.657v0 0.184c0 0.702 0.1 1.348 0.3 1.94 0.2 0.591 0.495 1.105 0.883 1.541v0c0.376 0.437 0.843 0.777 1.4 1.021 0.557 0.244 1.192 0.365 1.904 0.365v0c0.707 0 1.338-0.122 1.892-0.365 0.552-0.244 1.02-0.584 1.404-1.021v0c0.376-0.437 0.665-0.95 0.865-1.541 0.2-0.591 0.3-1.238 0.3-1.94v0-0.184c0-0.695-0.1-1.339-0.3-1.932-0.2-0.591-0.488-1.105-0.865-1.542v0c-0.388-0.434-0.86-0.776-1.415-1.024-0.552-0.246-1.186-0.369-1.899-0.369v0c-0.707 0-1.336 0.123-1.889 0.369-0.555 0.248-1.02 0.59-1.397 1.024v0c-0.388 0.437-0.683 0.95-0.883 1.542-0.2 0.593-0.3 1.238-0.3 1.932zM204.633 238.841v0-0.184c0-0.408 0.042-0.792 0.127-1.154 0.087-0.362 0.218-0.681 0.395-0.959v0c0.176-0.282 0.403-0.503 0.68-0.662 0.277-0.159 0.607-0.239 0.988-0.239v0c0.391 0 0.724 0.08 0.998 0.239 0.277 0.159 0.504 0.38 0.681 0.662v0c0.171 0.277 0.299 0.597 0.383 0.959 0.087 0.362 0.13 0.747 0.13 1.154v0 0.184c0 0.417-0.043 0.809-0.13 1.176-0.084 0.364-0.212 0.681-0.383 0.952v0c-0.176 0.285-0.403 0.507-0.681 0.666-0.275 0.157-0.602 0.235-0.98 0.235v0c-0.388 0-0.722-0.078-1.003-0.235-0.28-0.159-0.508-0.381-0.683-0.666v0c-0.176-0.27-0.308-0.587-0.395-0.952-0.084-0.367-0.127-0.759-0.127-1.176zM213.6 233.964v13.236h2.28v-4.523c0.118 0.123 0.239 0.236 0.361 0.34 0.123 0.101 0.256 0.194 0.398 0.279v0c0.234 0.128 0.49 0.228 0.768 0.3 0.277 0.07 0.581 0.105 0.911 0.105v0c0.601 0 1.134-0.124 1.6-0.373 0.463-0.246 0.854-0.587 1.172-1.024v0c0.314-0.429 0.552-0.942 0.717-1.538 0.164-0.593 0.246-1.235 0.246-1.925v0-0.195c0-0.719-0.082-1.376-0.246-1.972-0.164-0.598-0.405-1.112-0.724-1.541v0c-0.318-0.425-0.71-0.755-1.176-0.992-0.466-0.234-1.001-0.351-1.607-0.351v0c-0.306 0-0.593 0.031-0.861 0.094-0.268 0.065-0.511 0.157-0.731 0.275v0c-0.176 0.094-0.34 0.205-0.492 0.333-0.154 0.125-0.297 0.271-0.427 0.438v0l-0.087-0.966zM219.766 238.646v0 0.188c0 0.412-0.039 0.801-0.116 1.165-0.075 0.364-0.195 0.685-0.362 0.963v0c-0.164 0.277-0.379 0.497-0.644 0.658-0.265 0.162-0.58 0.242-0.944 0.243v0c-0.229 0-0.44-0.025-0.634-0.076-0.191-0.048-0.357-0.117-0.499-0.206v0c-0.147-0.094-0.277-0.206-0.391-0.337-0.116-0.13-0.215-0.275-0.296-0.434v0-4.114c0.087-0.176 0.193-0.329 0.318-0.46 0.123-0.13 0.264-0.242 0.423-0.336v0c0.142-0.077 0.302-0.136 0.478-0.178 0.176-0.041 0.37-0.062 0.583-0.061v0c0.371 0 0.688 0.077 0.948 0.231 0.263 0.152 0.48 0.363 0.651 0.634v0c0.164 0.273 0.286 0.591 0.365 0.955 0.08 0.364 0.119 0.753 0.12 1.165zM228.978 243.701v0c0.926 0 1.724-0.181 2.392-0.543 0.668-0.362 1.158-0.77 1.469-1.223v0l-1.172-1.212c-0.289 0.371-0.661 0.654-1.115 0.847-0.454 0.195-0.93 0.293-1.429 0.293v0c-0.367 0-0.702-0.059-1.006-0.177-0.302-0.118-0.571-0.283-0.807-0.496v0c-0.224-0.205-0.403-0.437-0.535-0.695-0.133-0.261-0.236-0.591-0.312-0.991v0-0.037h6.564v-0.969c0-0.695-0.094-1.333-0.282-1.914-0.191-0.579-0.468-1.075-0.832-1.488v0c-0.371-0.412-0.824-0.733-1.357-0.962-0.533-0.229-1.143-0.344-1.831-0.344v0c-0.642 0-1.241 0.118-1.798 0.355-0.557 0.239-1.042 0.574-1.455 1.006v0c-0.412 0.434-0.735 0.953-0.966 1.556-0.234 0.605-0.351 1.279-0.351 2.019v0 0.354c0 0.649 0.116 1.254 0.347 1.817 0.229 0.562 0.556 1.049 0.981 1.462v0c0.422 0.417 0.93 0.745 1.523 0.984 0.591 0.239 1.248 0.358 1.972 0.358zM228.707 235.643v0c0.335 0 0.628 0.054 0.879 0.163 0.248 0.111 0.462 0.257 0.641 0.437v0c0.171 0.183 0.305 0.402 0.401 0.655 0.096 0.253 0.145 0.513 0.145 0.778v0 0.178h-4.259c0.06-0.343 0.153-0.649 0.279-0.919 0.128-0.273 0.286-0.505 0.474-0.699v0c0.183-0.195 0.397-0.343 0.64-0.441 0.244-0.101 0.51-0.152 0.8-0.152zM242.026 233.79v0c-0.654 0-1.251 0.154-1.791 0.463-0.543 0.309-1.008 0.731-1.397 1.267v0l-0.018-0.221-0.097-1.335h-2.128v9.56h2.287v-5.822c0.106-0.277 0.245-0.52 0.416-0.728 0.171-0.21 0.374-0.382 0.608-0.517v0c0.207-0.13 0.446-0.228 0.716-0.293 0.273-0.065 0.577-0.098 0.912-0.098v0c0.306 0 0.622 0.019 0.948 0.058 0.328 0.039 0.654 0.096 0.977 0.174v0l0.337-2.273c-0.188-0.063-0.441-0.118-0.76-0.166-0.318-0.046-0.655-0.069-1.01-0.069z" fill="#ffffff" fill-rule="nonzero" stroke="none" stroke-width="1" stroke-linecap="butt" stroke-linejoin="miter" stroke-miterlimit="10" stroke-dasharray="" stroke-dashoffset="0" font-family="none" font-weight="none" font-size="none" text-anchor="none" style="mix-blend-mode: normal" data-fill-palette-color="secondary"></path></g></g><g transform="matrix(1,0,0,1,29.331764404296877,76.01093678437725)"><svg viewBox="0 0 316.416 88.60352315976112" height="88.60352315976112" width="316.416"><g><svg viewBox="0 0 517.8285887254465 145.00353128135592" height="88.60352315976112" width="316.416"><g><rect width="6.152007634921685" height="145.00353128135592" x="179.15584906193402" y="0" fill="#ffffff" opacity="1" stroke-width="0" stroke="transparent" fill-opacity="1" class="rect-o-0" data-fill-palette-color="primary" rx="1%" id="o-0" data-palette-color="#ffffff"></rect></g><g transform="matrix(1,0,0,1,201.4125887254465,0.36070530169490667)"><svg viewBox="0 0 316.416 144.2821206779661" height="144.2821206779661" width="316.416"><g><svg viewBox="0 0 316.416 144.2821206779661" height="144.2821206779661" width="316.416"><g><svg viewBox="0 0 316.416 144.2821206779661" height="144.2821206779661" width="316.416"><g transform="matrix(1,0,0,1,0,0)"><svg width="316.416" viewBox="0.32000160217285156 -40.410003662109375 247.0899658203125 96.09000396728516" height="144.2821206779661" data-palette-color="#ffffff"><svg></svg><svg></svg><g class="undefined-text-0" data-fill-palette-color="primary" id="text-0"><path xmlns="http://www.w3.org/2000/svg" d="M5.42 0v-38.16h32.5v6.79h-24.76v7.62h21.92v6.37h-21.92v10.62h25.27v6.76zM46.12 0v-28.81h7.22v2.44c1.927-1.087 3.763-1.85 5.51-2.29 1.747-0.44 3.46-0.66 5.14-0.66v0c2.2 0 4.233 0.32 6.1 0.96 1.873 0.647 3.493 1.603 4.86 2.87 1.367 1.273 2.437 2.857 3.21 4.75 0.773 1.893 1.16 4.087 1.16 6.58v0 14.16h-7.2v-12.99c0-1.58-0.223-2.99-0.67-4.23-0.447-1.247-1.09-2.297-1.93-3.15-0.84-0.86-1.857-1.513-3.05-1.96-1.2-0.447-2.54-0.67-4.02-0.67v0c-0.78 0-1.58 0.083-2.4 0.25-0.827 0.16-1.633 0.39-2.42 0.69-0.787 0.3-1.547 0.673-2.28 1.12-0.733 0.453-1.403 0.963-2.01 1.53v0 19.41zM88.18 0v-28.81h7.23v4.15c1.593-1.187 3.277-2.21 5.05-3.07 1.78-0.867 3.547-1.527 5.3-1.98v0l2.13 6.61c-2.787 0.28-5.233 0.903-7.34 1.87-2.107 0.967-3.82 2.33-5.14 4.09v0 17.14zM117.07-32.74v0c-0.72 0-1.37-0.1-1.95-0.3-0.573-0.207-1.063-0.483-1.47-0.83-0.407-0.353-0.72-0.763-0.94-1.23-0.22-0.46-0.33-0.95-0.33-1.47v0c0-0.54 0.11-1.04 0.33-1.5 0.22-0.467 0.533-0.87 0.94-1.21 0.407-0.34 0.897-0.613 1.47-0.82 0.58-0.207 1.23-0.31 1.95-0.31v0c0.727 0 1.38 0.103 1.96 0.31 0.58 0.207 1.073 0.48 1.48 0.82 0.407 0.34 0.72 0.743 0.94 1.21 0.22 0.46 0.33 0.96 0.33 1.5v0c0 0.52-0.11 1.01-0.33 1.47-0.22 0.467-0.533 0.877-0.94 1.23-0.407 0.347-0.9 0.623-1.48 0.83-0.58 0.2-1.233 0.3-1.96 0.3zM113.45 0v-28.81h7.23v28.81zM128.2-14.28v0c0-2.293 0.43-4.367 1.29-6.22 0.867-1.847 2.06-3.423 3.58-4.73 1.52-1.313 3.327-2.323 5.42-3.03 2.093-0.707 4.36-1.06 6.8-1.06v0c2.1 0 4.027 0.24 5.78 0.72 1.76 0.48 3.283 1.103 4.57 1.87v0-2.08h7.23v40.58h-7.23v-14.48c-0.633 0.44-1.357 0.857-2.17 1.25-0.813 0.387-1.687 0.727-2.62 1.02-0.927 0.293-1.897 0.527-2.91 0.7-1.02 0.167-2.05 0.25-3.09 0.25v0c-2.44 0-4.683-0.357-6.73-1.07-2.04-0.72-3.793-1.73-5.26-3.03-1.467-1.3-2.61-2.857-3.43-4.67-0.82-1.82-1.23-3.827-1.23-6.02zM135.79-14.28v0c0 1.153 0.233 2.243 0.7 3.27 0.46 1.027 1.127 1.927 2 2.7 0.867 0.773 1.917 1.383 3.15 1.83 1.227 0.447 2.607 0.67 4.14 0.67v0c0.973 0 1.923-0.093 2.85-0.28 0.927-0.187 1.81-0.45 2.65-0.79 0.84-0.347 1.63-0.763 2.37-1.25 0.74-0.487 1.403-1.033 1.99-1.64v0-9.98c-1.48-1.173-3.007-2.007-4.58-2.5-1.567-0.5-3.173-0.75-4.82-0.75v0c-1.66 0-3.137 0.223-4.43 0.67-1.293 0.447-2.383 1.063-3.27 1.85-0.887 0.78-1.567 1.7-2.04 2.76-0.473 1.053-0.71 2.2-0.71 3.44zM171.7-13.75v-15.08h7.21v14.06c0 1.333 0.147 2.55 0.44 3.65 0.293 1.1 0.793 2.04 1.5 2.82 0.707 0.78 1.65 1.387 2.83 1.82 1.18 0.433 2.65 0.65 4.41 0.65v0c0.827 0 1.667-0.09 2.52-0.27 0.853-0.18 1.673-0.43 2.46-0.75 0.78-0.313 1.507-0.69 2.18-1.13 0.673-0.44 1.257-0.92 1.75-1.44v0-19.41h7.22v28.83h-7.22v-2.47c-1.773 1.06-3.557 1.817-5.35 2.27-1.793 0.46-3.493 0.69-5.1 0.69v0c-2.64 0-4.9-0.317-6.78-0.95-1.88-0.64-3.417-1.563-4.61-2.77-1.2-1.213-2.077-2.703-2.63-4.47-0.553-1.767-0.83-3.783-0.83-6.05zM212.04-14.5v0c0-1.953 0.397-3.82 1.19-5.6 0.8-1.787 1.947-3.363 3.44-4.73 1.5-1.367 3.337-2.457 5.51-3.27 2.173-0.813 4.643-1.22 7.41-1.22v0c2.753 0 5.23 0.41 7.43 1.23 2.207 0.82 4.08 1.947 5.62 3.38 1.54 1.433 2.72 3.12 3.54 5.06 0.82 1.933 1.23 4.007 1.23 6.22v0c0 0.28-0.003 0.577-0.01 0.89-0.007 0.32-0.027 0.61-0.06 0.87v0h-27.25c0.313 0.86 0.813 1.65 1.5 2.37 0.693 0.713 1.56 1.33 2.6 1.85 1.047 0.52 2.253 0.923 3.62 1.21 1.367 0.287 2.88 0.43 4.54 0.43v0c1.66 0 3.31-0.177 4.95-0.53 1.647-0.347 3.22-0.79 4.72-1.33v0l2.44 5.52c-0.947 0.44-1.903 0.827-2.87 1.16-0.967 0.333-1.977 0.61-3.03 0.83-1.047 0.22-2.143 0.387-3.29 0.5-1.153 0.113-2.363 0.17-3.63 0.17v0c-3.24 0-6.08-0.39-8.52-1.17-2.44-0.78-4.483-1.847-6.13-3.2-1.64-1.347-2.877-2.933-3.71-4.76-0.827-1.82-1.24-3.78-1.24-5.88zM220.09-17.31h19.66c-0.26-0.8-0.663-1.543-1.21-2.23-0.547-0.693-1.227-1.297-2.04-1.81-0.813-0.513-1.757-0.917-2.83-1.21-1.073-0.293-2.253-0.44-3.54-0.44v0c-1.367 0-2.613 0.157-3.74 0.47-1.12 0.307-2.103 0.72-2.95 1.24-0.847 0.52-1.55 1.123-2.11 1.81-0.567 0.68-0.98 1.403-1.24 2.17z" fill="#ffffff" fill-rule="nonzero" stroke="none" stroke-width="1" stroke-linecap="butt" stroke-linejoin="miter" stroke-miterlimit="10" stroke-dasharray="" stroke-dashoffset="0" font-family="none" font-weight="none" font-size="none" text-anchor="none" style="mix-blend-mode: normal" data-fill-palette-color="primary" opacity="1"></path><path xmlns="http://www.w3.org/2000/svg" d="M17.04 55.17l-16.72-38.16h8.57l11.98 29.1 11.99-29.1h8.57l-16.72 38.16zM44.9 46.09v0c0-1.387 0.3-2.65 0.9-3.79 0.6-1.14 1.503-2.12 2.71-2.94 1.207-0.82 2.71-1.453 4.51-1.9 1.793-0.447 3.887-0.67 6.28-0.67v0c1.773 0 3.64 0.13 5.6 0.39 1.967 0.26 3.99 0.657 6.07 1.19v0c-0.08-0.907-0.357-1.747-0.83-2.52-0.473-0.773-1.127-1.443-1.96-2.01-0.84-0.56-1.85-0.993-3.03-1.3-1.18-0.313-2.52-0.47-4.02-0.47v0c-0.813 0-1.707 0.05-2.68 0.15-0.98 0.1-1.99 0.247-3.03 0.44-1.04 0.193-2.07 0.437-3.09 0.73-1.013 0.293-1.96 0.643-2.84 1.05v0l-2.2-5.93c1.093-0.393 2.26-0.75 3.5-1.07 1.247-0.327 2.52-0.61 3.82-0.85 1.307-0.233 2.61-0.417 3.91-0.55 1.3-0.127 2.56-0.19 3.78-0.19v0c5.393 0 9.4 1.373 12.02 4.12 2.62 2.753 3.93 6.97 3.93 12.65v0 12.55h-7.23v-2.71c-0.747 0.44-1.563 0.857-2.45 1.25-0.887 0.387-1.853 0.727-2.9 1.02-1.04 0.293-2.157 0.527-3.35 0.7-1.2 0.167-2.467 0.25-3.8 0.25v0c-2.247 0-4.22-0.243-5.92-0.73-1.7-0.487-3.12-1.163-4.26-2.03-1.14-0.86-2-1.873-2.58-3.04-0.573-1.16-0.86-2.423-0.86-3.79zM52.51 45.84v0c0 0.473 0.123 0.927 0.37 1.36 0.247 0.433 0.637 0.817 1.17 1.15 0.54 0.333 1.23 0.6 2.07 0.8 0.833 0.207 1.847 0.31 3.04 0.31v0c1.267 0 2.493-0.113 3.68-0.34 1.187-0.233 2.293-0.537 3.32-0.91 1.027-0.373 1.957-0.803 2.79-1.29 0.827-0.487 1.517-0.993 2.07-1.52v0-1.27c-1.107-0.307-2.2-0.567-3.28-0.78-1.087-0.207-2.12-0.373-3.1-0.5-0.987-0.12-1.917-0.203-2.79-0.25-0.867-0.053-1.627-0.08-2.28-0.08v0c-1.353 0-2.477 0.09-3.37 0.27-0.893 0.18-1.617 0.42-2.17 0.72-0.553 0.3-0.943 0.653-1.17 1.06-0.233 0.407-0.35 0.83-0.35 1.27zM85.57 40.89v0c0-2.293 0.433-4.367 1.3-6.22 0.86-1.847 2.05-3.423 3.57-4.73 1.52-1.313 3.327-2.323 5.42-3.03 2.093-0.707 4.36-1.06 6.8-1.06v0c1.04 0 2.07 0.063 3.09 0.19 1.02 0.133 1.997 0.313 2.93 0.54 0.933 0.227 1.813 0.5 2.64 0.82 0.82 0.32 1.547 0.667 2.18 1.04v0-13.77h7.23v40.5h-7.23v-2.71c-0.633 0.44-1.383 0.857-2.25 1.25-0.86 0.387-1.787 0.727-2.78 1.02-0.993 0.293-2.023 0.527-3.09 0.7-1.067 0.167-2.12 0.25-3.16 0.25v0c-2.44 0-4.68-0.357-6.72-1.07-2.047-0.72-3.803-1.73-5.27-3.03-1.46-1.3-2.603-2.857-3.43-4.67-0.82-1.82-1.23-3.827-1.23-6.02zM93.16 40.89v0c0 1.153 0.233 2.243 0.7 3.27 0.467 1.027 1.133 1.927 2 2.7 0.873 0.773 1.923 1.383 3.15 1.83 1.227 0.447 2.607 0.67 4.14 0.67v0c0.973 0 1.95-0.093 2.93-0.28 0.973-0.187 1.913-0.45 2.82-0.79 0.9-0.347 1.747-0.763 2.54-1.25 0.787-0.487 1.473-1.033 2.06-1.64v0-9.98c-0.733-0.587-1.507-1.083-2.32-1.49-0.813-0.407-1.643-0.74-2.49-1-0.847-0.26-1.7-0.45-2.56-0.57-0.867-0.127-1.707-0.19-2.52-0.19v0c-1.66 0-3.137 0.223-4.43 0.67-1.293 0.447-2.383 1.063-3.27 1.85-0.887 0.78-1.567 1.7-2.04 2.76-0.473 1.053-0.71 2.2-0.71 3.44zM133.37 22.43v0c-0.713 0-1.36-0.1-1.94-0.3-0.573-0.207-1.063-0.483-1.47-0.83-0.407-0.353-0.72-0.763-0.94-1.23-0.22-0.46-0.33-0.95-0.33-1.47v0c0-0.54 0.11-1.04 0.33-1.5 0.22-0.467 0.533-0.87 0.94-1.21 0.407-0.34 0.897-0.613 1.47-0.82 0.58-0.207 1.227-0.31 1.94-0.31v0c0.733 0 1.39 0.103 1.97 0.31 0.58 0.207 1.073 0.48 1.48 0.82 0.407 0.34 0.72 0.743 0.94 1.21 0.22 0.46 0.33 0.96 0.33 1.5v0c0 0.52-0.11 1.01-0.33 1.47-0.22 0.467-0.533 0.877-0.94 1.23-0.407 0.347-0.9 0.623-1.48 0.83-0.58 0.2-1.237 0.3-1.97 0.3zM129.76 55.17v-28.81h7.23v28.81zM146.44 55.17v-40.5h7.22v40.5zM163.11 55.17v-40.5h7.23v40.5zM177.86 40.77v0c0-2.067 0.417-4.003 1.25-5.81 0.84-1.807 2.037-3.387 3.59-4.74 1.553-1.353 3.433-2.42 5.64-3.2 2.207-0.78 4.687-1.17 7.44-1.17v0c2.747 0 5.223 0.39 7.43 1.17 2.207 0.78 4.087 1.847 5.64 3.2 1.553 1.353 2.75 2.933 3.59 4.74 0.84 1.807 1.26 3.743 1.26 5.81v0c0 2.067-0.42 4.003-1.26 5.81-0.84 1.807-2.037 3.383-3.59 4.73-1.553 1.353-3.433 2.42-5.64 3.2-2.207 0.78-4.683 1.17-7.43 1.17v0c-2.753 0-5.233-0.39-7.44-1.17-2.207-0.78-4.087-1.847-5.64-3.2-1.553-1.347-2.75-2.923-3.59-4.73-0.833-1.807-1.25-3.743-1.25-5.81zM185.45 40.77v0c0 1.153 0.233 2.247 0.7 3.28 0.46 1.033 1.133 1.943 2.02 2.73 0.887 0.793 1.97 1.42 3.25 1.88 1.273 0.467 2.727 0.7 4.36 0.7v0c1.627 0 3.077-0.233 4.35-0.7 1.28-0.46 2.363-1.087 3.25-1.88 0.887-0.787 1.563-1.697 2.03-2.73 0.46-1.033 0.69-2.127 0.69-3.28v0c0-1.16-0.23-2.26-0.69-3.3-0.467-1.04-1.143-1.957-2.03-2.75-0.887-0.787-1.97-1.413-3.25-1.88-1.273-0.46-2.723-0.69-4.35-0.69v0c-1.633 0-3.087 0.23-4.36 0.69-1.28 0.467-2.363 1.093-3.25 1.88-0.887 0.793-1.56 1.71-2.02 2.75-0.467 1.04-0.7 2.14-0.7 3.3z" fill="#ffffff" fill-rule="nonzero" stroke="none" stroke-width="1" stroke-linecap="butt" stroke-linejoin="miter" stroke-miterlimit="10" stroke-dasharray="" stroke-dashoffset="0" font-family="none" font-weight="none" font-size="none" text-anchor="none" style="mix-blend-mode: normal" data-fill-palette-color="primary" opacity="1"></path></g></svg></g></svg></g></svg></g></svg></g><g transform="matrix(1,0,0,1,0,0.36070530169490667)"><svg viewBox="0 0 163.05111703334322 144.2821206779661" height="144.2821206779661" width="163.05111703334322"><g><svg xmlns="http://www.w3.org/2000/svg" xmlns:xlink="http://www.w3.org/1999/xlink" version="1.1" x="0" y="0" viewBox="5 10.179999351501465 90 79.63999938964844" enable-background="new 0 0 100 100" xml:space="preserve" height="144.2821206779661" width="163.05111703334322" class="icon-icon-0" data-fill-palette-color="accent" id="icon-0"><g fill="#ffffff" data-fill-palette-color="accent"><path d="M81.245 38.696c-2.478-0.799-5.2-1.489-8.103-2.069 0.946-2.795 1.725-5.499 2.27-8.037 1.986-9.242 0.979-15.316-2.911-17.561-0.974-0.564-2.095-0.849-3.331-0.849-1.828 0-3.906 0.645-6.151 1.85-0.81-0.629-1.816-1.019-2.922-1.019-2.643 0-4.786 2.141-4.786 4.785 0 0.59 0.121 1.149 0.317 1.672C53.786 19.145 51.9 21.081 50 23.245 42.858 15.11 35.889 10.182 30.83 10.182c-1.235 0-2.356 0.284-3.331 0.848-3.889 2.246-4.896 8.32-2.911 17.561 0.545 2.538 1.324 5.242 2.27 8.037-2.903 0.579-5.624 1.269-8.101 2.068C9.756 41.6 5 45.507 5 50c0 3.084 2.242 5.893 6.558 8.289-0.091 0.369-0.153 0.749-0.153 1.146 0 2.642 2.144 4.785 4.789 4.785 1.783 0 3.32-0.987 4.143-2.432 2.038 0.597 4.223 1.124 6.521 1.583-0.946 2.795-1.725 5.499-2.27 8.036-1.984 9.245-0.977 15.317 2.913 17.564 0.975 0.561 2.094 0.847 3.329 0.847 5.06 0 12.028-4.928 19.171-13.064C57.143 84.891 64.111 89.82 69.17 89.82c1.236 0 2.355-0.287 3.329-0.847 2.963-1.711 4.249-5.646 3.82-11.504 1.661-0.752 2.821-2.414 2.821-4.354 0-2.537-1.977-4.59-4.471-4.756-0.43-1.614-0.951-3.284-1.527-4.986 2.904-0.58 5.625-1.27 8.103-2.069C90.244 58.401 95 54.493 95 50 95 45.507 90.244 41.6 81.245 38.696zM57.406 19.755c0.767 0.523 1.693 0.831 2.692 0.831 2.645 0 4.788-2.144 4.788-4.788 0-0.481-0.092-0.935-0.224-1.373 1.738-0.904 3.266-1.37 4.509-1.37 0.735 0 1.354 0.15 1.895 0.462 2.589 1.497 3.165 6.907 1.539 14.474-0.548 2.553-1.344 5.285-2.317 8.115-3.623-0.607-7.487-1.05-11.506-1.311-2.262-3.394-4.58-6.525-6.897-9.335C53.786 23.275 55.639 21.372 57.406 19.755zM60.926 56.309c-1.24 2.148-2.494 4.183-3.75 6.116-2.313 0.125-4.706 0.193-7.177 0.193-2.471 0-4.863-0.068-7.175-0.193-1.256-1.933-2.51-3.967-3.75-6.116-1.218-2.109-2.346-4.221-3.413-6.322 1.046-2.06 2.181-4.161 3.413-6.296 1.24-2.148 2.494-4.183 3.75-6.116 2.312-0.125 4.704-0.193 7.175-0.193 2.471 0 4.865 0.068 7.177 0.193 1.256 1.933 2.51 3.967 3.75 6.116 1.232 2.135 2.367 4.236 3.413 6.296C63.273 52.088 62.144 54.2 60.926 56.309zM65.914 53.2c1.299 2.751 2.425 5.408 3.384 7.943-2.672 0.436-5.533 0.789-8.561 1.04 0.905-1.441 1.8-2.919 2.677-4.438C64.288 56.23 65.114 54.714 65.914 53.2zM55.19 65.388c-1.742 2.519-3.481 4.832-5.19 6.924-1.709-2.092-3.448-4.404-5.19-6.924 1.711 0.065 3.441 0.101 5.189 0.101C51.748 65.489 53.479 65.453 55.19 65.388zM39.264 62.182c-3.028-0.251-5.89-0.603-8.562-1.04 0.959-2.535 2.086-5.192 3.385-7.943 0.8 1.515 1.626 3.031 2.501 4.545C37.464 59.263 38.359 60.741 39.264 62.182zM34.094 46.786c-1.272-2.693-2.41-5.347-3.39-7.929 2.672-0.436 5.532-0.789 8.559-1.039-0.905 1.441-1.8 2.919-2.677 4.438C35.716 43.765 34.892 45.276 34.094 46.786zM44.81 34.612c1.742-2.519 3.481-4.832 5.19-6.924 1.709 2.092 3.448 4.405 5.19 6.924-1.712-0.065-3.443-0.101-5.192-0.101C48.251 34.511 46.521 34.548 44.81 34.612zM63.414 42.255c-0.877-1.519-1.771-2.996-2.677-4.438 3.027 0.251 5.887 0.603 8.558 1.039-0.98 2.582-2.117 5.236-3.389 7.929C65.109 45.276 64.286 43.765 63.414 42.255zM27.397 27.99c-1.626-7.567-1.05-12.977 1.539-14.474 0.54-0.312 1.161-0.462 1.894-0.462 3.791 0 10.195 4.269 17.287 12.404-2.316 2.81-4.634 5.941-6.896 9.335-4.02 0.261-7.884 0.704-11.507 1.311C28.742 33.275 27.945 30.543 27.397 27.99zM20.932 58.951c-0.245-2.415-2.26-4.306-4.738-4.306-1.191 0-2.266 0.451-3.104 1.17C9.732 53.974 7.872 51.951 7.872 50c0-3.955 7.603-8.207 19.953-10.627 1.286 3.444 2.831 7.012 4.616 10.627-1.785 3.615-3.33 7.182-4.616 10.627C25.326 60.137 23.018 59.573 20.932 58.951zM30.83 86.946c-0.733 0-1.354-0.151-1.894-0.463-3.424-1.977-3.305-10.685 0.774-22.589 3.625 0.608 7.49 1.051 11.512 1.313 2.262 3.394 4.58 6.525 6.896 9.335C41.024 82.677 34.62 86.946 30.83 86.946zM71.867 69.038c-1.376 0.841-2.302 2.344-2.302 4.076 0 2.329 1.664 4.266 3.868 4.694 0.307 4.509-0.502 7.597-2.37 8.675-0.54 0.312-1.158 0.463-1.893 0.463-3.789 0-10.193-4.269-17.286-12.404 2.317-2.81 4.634-5.942 6.897-9.335 4.021-0.262 7.886-0.705 11.51-1.313C70.904 65.684 71.431 67.405 71.867 69.038zM72.174 60.627c-1.286-3.444-2.83-7.012-4.615-10.627 1.785-3.615 3.329-7.183 4.615-10.627C84.525 41.793 92.129 46.045 92.129 50 92.129 53.955 84.525 58.207 72.174 60.627z" fill="#ffffff" data-fill-palette-color="accent"></path><circle cx="50" cy="50" r="6.7" fill="#ffffff" data-fill-palette-color="accent"></circle></g></svg></g></svg></g></svg></g></svg></g></svg></g><defs></defs></svg><rect width="375.07952880859375" height="240.62539672851562" fill="none" stroke="none" visibility="hidden"></rect></g></svg></g></svg>