<?xml version="1.0" encoding="UTF-8"?>
<svg xmlns="http://www.w3.org/2000/svg" xmlns:xlink="http://www.w3.org/1999/xlink" width="1000px" height="642px" viewBox="0 0 121 78" version="1.1">
<defs>
<clipPath id="clip1">
  <path d="M 0.0625 0 L 120.960938 0 L 120.960938 76 L 0.0625 76 Z M 0.0625 0 "/>
</clipPath>
<clipPath id="clip2">
  <path d="M 12 72 L 76 72 L 76 77.878906 L 12 77.878906 Z M 12 72 "/>
</clipPath>
<clipPath id="clip3">
  <path d="M 44 24.601562 L 47 24.601562 L 47 53.277344 L 44 53.277344 Z M 44 24.601562 "/>
</clipPath>
<clipPath id="clip4">
  <path d="M 50 26 L 111.507812 26 L 111.507812 40 L 50 40 Z M 50 26 "/>
</clipPath>
<clipPath id="clip5">
  <path d="M 49.1875 40 L 104 40 L 104 52 L 49.1875 52 Z M 49.1875 40 "/>
</clipPath>
<clipPath id="clip6">
  <path d="M 9.515625 24.671875 L 41.628906 24.671875 L 41.628906 53.207031 L 9.515625 53.207031 Z M 9.515625 24.671875 "/>
</clipPath>
</defs>
<g id="surface1">
<g clip-path="url(#clip1)" clip-rule="nonzero">
<path style=" stroke:none;fill-rule:nonzero;fill:rgb(100%,100%,100%);fill-opacity:1;" d="M 0.0625 75.75 L 0.0625 0 L 120.964844 0 L 120.964844 75.75 L 78.988281 75.75 L 78.988281 74.535156 L 119.75 74.535156 L 119.75 1.214844 L 1.273438 1.214844 L 1.273438 74.535156 L 9.332031 74.535156 L 9.332031 75.75 Z M 0.0625 75.75 "/>
</g>
<g clip-path="url(#clip2)" clip-rule="nonzero">
<path style=" stroke:none;fill-rule:nonzero;fill:rgb(100%,100%,100%);fill-opacity:1;" d="M 15.25 75.613281 C 15.25 75.695312 15.230469 75.765625 15.199219 75.832031 C 15.164062 75.898438 15.117188 75.957031 15.054688 76.003906 C 14.992188 76.046875 14.917969 76.082031 14.832031 76.109375 C 14.75 76.132812 14.652344 76.144531 14.546875 76.144531 C 14.425781 76.144531 14.3125 76.132812 14.210938 76.101562 C 14.109375 76.074219 14.019531 76.03125 13.949219 75.972656 C 13.875 75.910156 13.816406 75.835938 13.773438 75.742188 C 13.730469 75.652344 13.707031 75.542969 13.699219 75.417969 L 12.964844 75.417969 C 12.96875 75.625 13.007812 75.808594 13.089844 75.964844 C 13.171875 76.121094 13.28125 76.257812 13.417969 76.375 C 13.566406 76.492188 13.742188 76.585938 13.941406 76.648438 C 14.140625 76.710938 14.339844 76.742188 14.546875 76.742188 C 14.746094 76.742188 14.9375 76.71875 15.113281 76.667969 C 15.285156 76.617188 15.4375 76.546875 15.566406 76.449219 C 15.699219 76.351562 15.800781 76.230469 15.875 76.089844 C 15.953125 75.949219 15.988281 75.789062 15.988281 75.605469 C 15.988281 75.398438 15.941406 75.214844 15.851562 75.058594 C 15.757812 74.902344 15.632812 74.765625 15.476562 74.648438 C 15.363281 74.566406 15.242188 74.496094 15.109375 74.4375 C 14.972656 74.375 14.835938 74.324219 14.6875 74.285156 C 14.566406 74.25 14.449219 74.210938 14.34375 74.171875 C 14.238281 74.128906 14.148438 74.082031 14.070312 74.027344 C 13.992188 73.980469 13.933594 73.921875 13.890625 73.851562 C 13.847656 73.785156 13.824219 73.707031 13.824219 73.621094 C 13.824219 73.539062 13.84375 73.464844 13.875 73.398438 C 13.90625 73.328125 13.953125 73.269531 14.011719 73.222656 C 14.074219 73.175781 14.148438 73.136719 14.230469 73.109375 C 14.316406 73.082031 14.414062 73.070312 14.519531 73.070312 C 14.636719 73.070312 14.738281 73.085938 14.828125 73.121094 C 14.917969 73.152344 14.992188 73.199219 15.054688 73.257812 C 15.113281 73.316406 15.160156 73.386719 15.191406 73.46875 C 15.226562 73.550781 15.246094 73.640625 15.25 73.742188 L 15.980469 73.742188 C 15.980469 73.554688 15.945312 73.382812 15.871094 73.226562 C 15.796875 73.070312 15.695312 72.9375 15.566406 72.824219 C 15.4375 72.710938 15.285156 72.625 15.109375 72.5625 C 14.929688 72.5 14.738281 72.46875 14.527344 72.46875 C 14.328125 72.46875 14.140625 72.496094 13.96875 72.550781 C 13.792969 72.601562 13.640625 72.679688 13.511719 72.78125 C 13.382812 72.878906 13.277344 73 13.203125 73.144531 C 13.128906 73.285156 13.089844 73.445312 13.089844 73.621094 C 13.089844 73.777344 13.121094 73.921875 13.179688 74.054688 C 13.242188 74.183594 13.332031 74.300781 13.445312 74.40625 C 13.554688 74.511719 13.695312 74.605469 13.863281 74.691406 C 14.035156 74.777344 14.226562 74.847656 14.4375 74.90625 C 14.574219 74.945312 14.695312 74.988281 14.796875 75.03125 C 14.898438 75.078125 14.984375 75.128906 15.050781 75.183594 C 15.117188 75.246094 15.167969 75.308594 15.199219 75.378906 C 15.234375 75.449219 15.25 75.527344 15.25 75.613281 Z M 16.5 75.113281 L 16.5 75.171875 C 16.5 75.402344 16.53125 75.609375 16.597656 75.800781 C 16.660156 75.992188 16.757812 76.160156 16.882812 76.300781 C 17.003906 76.441406 17.152344 76.550781 17.332031 76.628906 C 17.511719 76.710938 17.714844 76.75 17.945312 76.75 C 18.171875 76.75 18.375 76.710938 18.554688 76.628906 C 18.734375 76.550781 18.882812 76.441406 19.007812 76.300781 C 19.128906 76.160156 19.222656 75.992188 19.289062 75.800781 C 19.351562 75.609375 19.382812 75.402344 19.382812 75.171875 L 19.382812 75.113281 C 19.382812 74.890625 19.351562 74.679688 19.289062 74.488281 C 19.222656 74.296875 19.128906 74.132812 19.007812 73.988281 C 18.882812 73.847656 18.730469 73.738281 18.550781 73.65625 C 18.375 73.578125 18.167969 73.539062 17.941406 73.539062 C 17.710938 73.539062 17.507812 73.578125 17.332031 73.65625 C 17.152344 73.738281 17.003906 73.847656 16.882812 73.988281 C 16.757812 74.132812 16.660156 74.296875 16.597656 74.488281 C 16.53125 74.679688 16.5 74.890625 16.5 75.113281 Z M 17.234375 75.171875 L 17.234375 75.113281 C 17.234375 74.980469 17.246094 74.859375 17.273438 74.742188 C 17.300781 74.625 17.34375 74.519531 17.402344 74.429688 C 17.460938 74.339844 17.53125 74.265625 17.621094 74.214844 C 17.710938 74.164062 17.816406 74.136719 17.941406 74.136719 C 18.066406 74.136719 18.171875 74.164062 18.261719 74.214844 C 18.351562 74.265625 18.425781 74.339844 18.480469 74.429688 C 18.535156 74.519531 18.578125 74.625 18.605469 74.742188 C 18.632812 74.859375 18.648438 74.980469 18.648438 75.113281 L 18.648438 75.171875 C 18.648438 75.308594 18.632812 75.433594 18.605469 75.554688 C 18.578125 75.671875 18.535156 75.773438 18.480469 75.863281 C 18.425781 75.953125 18.351562 76.027344 18.261719 76.078125 C 18.171875 76.128906 18.066406 76.152344 17.945312 76.152344 C 17.820312 76.152344 17.714844 76.128906 17.621094 76.078125 C 17.53125 76.027344 17.460938 75.953125 17.402344 75.863281 C 17.34375 75.773438 17.300781 75.671875 17.273438 75.554688 C 17.25 75.433594 17.234375 75.308594 17.234375 75.171875 Z M 20.882812 74.144531 L 20.882812 76.6875 L 21.625 76.6875 L 21.625 74.144531 L 22.753906 74.144531 L 22.753906 73.59375 L 21.625 73.59375 L 21.625 73.414062 C 21.625 73.316406 21.636719 73.226562 21.664062 73.152344 C 21.6875 73.074219 21.726562 73.007812 21.78125 72.957031 C 21.835938 72.898438 21.910156 72.851562 22.003906 72.824219 C 22.097656 72.792969 22.207031 72.777344 22.339844 72.777344 C 22.460938 72.777344 22.566406 72.785156 22.664062 72.796875 C 22.757812 72.8125 22.839844 72.824219 22.914062 72.84375 L 22.964844 72.261719 C 22.90625 72.246094 22.847656 72.234375 22.789062 72.226562 C 22.734375 72.214844 22.675781 72.207031 22.617188 72.199219 C 22.554688 72.191406 22.492188 72.183594 22.429688 72.175781 C 22.367188 72.171875 22.300781 72.167969 22.230469 72.167969 C 22.027344 72.167969 21.839844 72.195312 21.675781 72.25 C 21.507812 72.304688 21.367188 72.382812 21.25 72.488281 C 21.132812 72.59375 21.042969 72.726562 20.980469 72.878906 C 20.914062 73.035156 20.882812 73.214844 20.882812 73.414062 L 20.882812 73.59375 L 20.066406 73.59375 L 20.066406 74.144531 Z M 25.023438 73.59375 L 25.023438 72.839844 L 24.289062 72.839844 L 24.289062 73.59375 L 23.5625 73.59375 L 23.5625 74.144531 L 24.289062 74.144531 L 24.289062 75.609375 C 24.289062 75.808594 24.3125 75.984375 24.367188 76.125 C 24.417969 76.269531 24.492188 76.386719 24.589844 76.476562 C 24.683594 76.570312 24.796875 76.640625 24.933594 76.683594 C 25.066406 76.726562 25.214844 76.75 25.375 76.75 C 25.460938 76.75 25.550781 76.746094 25.636719 76.734375 C 25.726562 76.726562 25.8125 76.714844 25.894531 76.699219 C 25.976562 76.683594 26.050781 76.667969 26.121094 76.644531 C 26.195312 76.621094 26.253906 76.59375 26.308594 76.5625 L 26.230469 76.050781 C 26.199219 76.0625 26.15625 76.070312 26.105469 76.078125 C 26.054688 76.089844 26 76.097656 25.945312 76.105469 C 25.886719 76.113281 25.824219 76.125 25.761719 76.128906 C 25.699219 76.136719 25.636719 76.140625 25.578125 76.140625 C 25.496094 76.140625 25.421875 76.128906 25.351562 76.113281 C 25.285156 76.09375 25.226562 76.058594 25.175781 76.011719 C 25.128906 75.96875 25.089844 75.90625 25.0625 75.832031 C 25.039062 75.757812 25.023438 75.664062 25.023438 75.546875 L 25.023438 74.144531 L 26.179688 74.144531 L 26.179688 73.59375 Z M 26.78125 73.59375 L 27.355469 76.6875 L 27.992188 76.6875 L 28.351562 74.984375 L 28.417969 74.636719 L 28.484375 74.984375 L 28.855469 76.6875 L 29.488281 76.6875 L 30.066406 73.59375 L 29.390625 73.59375 L 29.144531 75.449219 L 29.09375 75.789062 L 29.035156 75.453125 L 28.667969 73.59375 L 28.175781 73.59375 L 27.8125 75.460938 L 27.753906 75.789062 L 27.710938 75.460938 L 27.453125 73.59375 Z M 32.558594 76.6875 L 33.3125 76.6875 L 33.3125 76.640625 C 33.273438 76.558594 33.242188 76.464844 33.222656 76.355469 C 33.199219 76.246094 33.191406 76.113281 33.191406 75.960938 L 33.191406 74.613281 C 33.191406 74.433594 33.15625 74.277344 33.09375 74.144531 C 33.023438 74.007812 32.933594 73.898438 32.820312 73.808594 C 32.703125 73.71875 32.566406 73.648438 32.410156 73.605469 C 32.25 73.5625 32.078125 73.539062 31.894531 73.539062 C 31.691406 73.539062 31.511719 73.566406 31.351562 73.617188 C 31.195312 73.667969 31.058594 73.742188 30.949219 73.832031 C 30.839844 73.917969 30.757812 74.019531 30.699219 74.136719 C 30.640625 74.253906 30.609375 74.375 30.609375 74.5 L 31.347656 74.5 C 31.347656 74.445312 31.359375 74.390625 31.378906 74.34375 C 31.394531 74.292969 31.425781 74.253906 31.464844 74.21875 C 31.507812 74.179688 31.5625 74.152344 31.628906 74.128906 C 31.691406 74.109375 31.769531 74.097656 31.855469 74.097656 C 31.953125 74.097656 32.042969 74.109375 32.117188 74.136719 C 32.191406 74.160156 32.253906 74.195312 32.304688 74.242188 C 32.355469 74.285156 32.390625 74.335938 32.417969 74.398438 C 32.441406 74.460938 32.453125 74.53125 32.453125 74.609375 L 32.453125 74.800781 L 31.984375 74.800781 C 31.761719 74.800781 31.558594 74.824219 31.382812 74.863281 C 31.207031 74.90625 31.0625 74.964844 30.941406 75.042969 C 30.8125 75.128906 30.710938 75.238281 30.644531 75.371094 C 30.578125 75.503906 30.546875 75.652344 30.546875 75.824219 C 30.546875 75.957031 30.570312 76.078125 30.625 76.191406 C 30.675781 76.304688 30.75 76.402344 30.84375 76.488281 C 30.9375 76.566406 31.050781 76.632812 31.183594 76.675781 C 31.316406 76.722656 31.460938 76.746094 31.621094 76.746094 C 31.714844 76.746094 31.808594 76.738281 31.894531 76.71875 C 31.976562 76.699219 32.058594 76.671875 32.128906 76.640625 C 32.199219 76.609375 32.265625 76.570312 32.324219 76.527344 C 32.382812 76.484375 32.433594 76.4375 32.480469 76.390625 C 32.488281 76.445312 32.5 76.5 32.511719 76.554688 C 32.523438 76.605469 32.539062 76.652344 32.558594 76.6875 Z M 31.769531 76.164062 C 31.6875 76.164062 31.617188 76.152344 31.558594 76.132812 C 31.496094 76.113281 31.445312 76.085938 31.40625 76.054688 C 31.363281 76.019531 31.332031 75.976562 31.3125 75.925781 C 31.292969 75.875 31.28125 75.820312 31.28125 75.761719 C 31.28125 75.6875 31.292969 75.621094 31.320312 75.558594 C 31.347656 75.5 31.390625 75.445312 31.445312 75.402344 C 31.507812 75.355469 31.585938 75.316406 31.683594 75.292969 C 31.777344 75.269531 31.894531 75.257812 32.03125 75.257812 L 32.453125 75.257812 L 32.453125 75.808594 C 32.429688 75.851562 32.394531 75.894531 32.351562 75.9375 C 32.308594 75.980469 32.257812 76.019531 32.199219 76.050781 C 32.140625 76.085938 32.074219 76.113281 32.003906 76.132812 C 31.929688 76.152344 31.851562 76.164062 31.769531 76.164062 Z M 36.285156 73.539062 C 36.074219 73.539062 35.882812 73.589844 35.707031 73.6875 C 35.535156 73.789062 35.382812 73.925781 35.257812 74.097656 L 35.253906 74.027344 L 35.222656 73.59375 L 34.535156 73.59375 L 34.535156 76.6875 L 35.273438 76.6875 L 35.273438 74.804688 C 35.308594 74.714844 35.351562 74.636719 35.40625 74.570312 C 35.460938 74.5 35.527344 74.445312 35.601562 74.402344 C 35.667969 74.359375 35.746094 74.328125 35.832031 74.308594 C 35.921875 74.285156 36.019531 74.273438 36.125 74.273438 C 36.226562 74.273438 36.328125 74.28125 36.433594 74.292969 C 36.539062 74.304688 36.644531 74.324219 36.75 74.351562 L 36.855469 73.613281 C 36.796875 73.59375 36.714844 73.578125 36.609375 73.5625 C 36.507812 73.546875 36.402344 73.539062 36.285156 73.539062 Z M 39.078125 76.746094 C 39.378906 76.746094 39.632812 76.6875 39.847656 76.570312 C 40.066406 76.453125 40.222656 76.320312 40.324219 76.175781 L 39.945312 75.78125 C 39.851562 75.902344 39.734375 75.992188 39.585938 76.054688 C 39.441406 76.121094 39.285156 76.152344 39.125 76.152344 C 39.007812 76.152344 38.898438 76.132812 38.800781 76.09375 C 38.703125 76.054688 38.617188 76.003906 38.542969 75.933594 C 38.46875 75.867188 38.414062 75.792969 38.371094 75.707031 C 38.328125 75.625 38.292969 75.515625 38.269531 75.386719 L 38.269531 75.375 L 40.382812 75.375 L 40.382812 75.0625 C 40.382812 74.835938 40.355469 74.632812 40.292969 74.441406 C 40.230469 74.253906 40.144531 74.09375 40.027344 73.960938 C 39.90625 73.828125 39.761719 73.722656 39.589844 73.648438 C 39.417969 73.574219 39.21875 73.539062 38.996094 73.539062 C 38.789062 73.539062 38.597656 73.578125 38.417969 73.652344 C 38.238281 73.730469 38.082031 73.839844 37.949219 73.980469 C 37.816406 74.121094 37.710938 74.289062 37.636719 74.484375 C 37.5625 74.679688 37.523438 74.898438 37.523438 75.136719 L 37.523438 75.25 C 37.523438 75.460938 37.5625 75.65625 37.636719 75.839844 C 37.710938 76.019531 37.816406 76.179688 37.953125 76.3125 C 38.089844 76.445312 38.253906 76.554688 38.441406 76.628906 C 38.632812 76.707031 38.847656 76.746094 39.078125 76.746094 Z M 38.992188 74.136719 C 39.101562 74.136719 39.195312 74.15625 39.273438 74.191406 C 39.355469 74.226562 39.425781 74.273438 39.480469 74.332031 C 39.535156 74.390625 39.578125 74.460938 39.609375 74.542969 C 39.640625 74.625 39.660156 74.710938 39.660156 74.796875 L 39.660156 74.855469 L 38.285156 74.855469 C 38.304688 74.742188 38.335938 74.644531 38.375 74.554688 C 38.414062 74.46875 38.464844 74.394531 38.527344 74.332031 C 38.585938 74.265625 38.65625 74.21875 38.734375 74.1875 C 38.8125 74.15625 38.898438 74.136719 38.992188 74.136719 Z M 44.5625 72.527344 L 44.5625 76.6875 L 45.644531 76.6875 C 45.835938 76.6875 46.011719 76.667969 46.175781 76.621094 C 46.339844 76.574219 46.488281 76.507812 46.621094 76.421875 C 46.742188 76.347656 46.847656 76.257812 46.949219 76.148438 C 47.046875 76.039062 47.132812 75.917969 47.203125 75.785156 C 47.277344 75.644531 47.335938 75.488281 47.375 75.316406 C 47.414062 75.148438 47.433594 74.96875 47.433594 74.777344 L 47.433594 74.441406 C 47.433594 74.242188 47.414062 74.058594 47.371094 73.882812 C 47.328125 73.707031 47.265625 73.546875 47.1875 73.398438 C 47.113281 73.269531 47.027344 73.152344 46.925781 73.046875 C 46.824219 72.941406 46.710938 72.851562 46.582031 72.777344 C 46.445312 72.699219 46.296875 72.636719 46.136719 72.589844 C 45.972656 72.546875 45.800781 72.527344 45.613281 72.527344 Z M 45.3125 76.089844 L 45.3125 73.132812 L 45.613281 73.132812 C 45.71875 73.132812 45.816406 73.144531 45.902344 73.167969 C 45.992188 73.191406 46.070312 73.226562 46.144531 73.265625 C 46.242188 73.320312 46.324219 73.394531 46.394531 73.480469 C 46.46875 73.570312 46.523438 73.671875 46.570312 73.785156 C 46.605469 73.878906 46.632812 73.980469 46.648438 74.089844 C 46.667969 74.199219 46.679688 74.3125 46.679688 74.4375 L 46.679688 74.777344 C 46.679688 74.90625 46.667969 75.027344 46.648438 75.136719 C 46.632812 75.246094 46.605469 75.347656 46.570312 75.4375 C 46.53125 75.546875 46.476562 75.644531 46.417969 75.726562 C 46.355469 75.808594 46.285156 75.875 46.203125 75.929688 C 46.128906 75.980469 46.042969 76.019531 45.949219 76.046875 C 45.859375 76.074219 45.757812 76.089844 45.644531 76.089844 Z M 49.578125 76.746094 C 49.875 76.746094 50.132812 76.6875 50.347656 76.570312 C 50.5625 76.453125 50.722656 76.320312 50.824219 76.175781 L 50.445312 75.78125 C 50.351562 75.902344 50.230469 75.992188 50.085938 76.054688 C 49.9375 76.121094 49.785156 76.152344 49.625 76.152344 C 49.507812 76.152344 49.398438 76.132812 49.300781 76.09375 C 49.203125 76.054688 49.117188 76.003906 49.039062 75.933594 C 48.96875 75.867188 48.910156 75.792969 48.867188 75.707031 C 48.824219 75.625 48.792969 75.515625 48.765625 75.386719 L 48.765625 75.375 L 50.882812 75.375 L 50.882812 75.0625 C 50.882812 74.835938 50.851562 74.632812 50.792969 74.441406 C 50.730469 74.253906 50.640625 74.09375 50.523438 73.960938 C 50.402344 73.828125 50.257812 73.722656 50.085938 73.648438 C 49.914062 73.574219 49.71875 73.539062 49.496094 73.539062 C 49.289062 73.539062 49.097656 73.578125 48.917969 73.652344 C 48.738281 73.730469 48.582031 73.839844 48.449219 73.980469 C 48.316406 74.121094 48.210938 74.289062 48.136719 74.484375 C 48.0625 74.679688 48.023438 74.898438 48.023438 75.136719 L 48.023438 75.25 C 48.023438 75.460938 48.0625 75.65625 48.136719 75.839844 C 48.210938 76.019531 48.316406 76.179688 48.453125 76.3125 C 48.589844 76.445312 48.75 76.554688 48.941406 76.628906 C 49.132812 76.707031 49.34375 76.746094 49.578125 76.746094 Z M 49.492188 74.136719 C 49.597656 74.136719 49.691406 74.15625 49.773438 74.191406 C 49.855469 74.226562 49.921875 74.273438 49.980469 74.332031 C 50.035156 74.390625 50.078125 74.460938 50.109375 74.542969 C 50.140625 74.625 50.15625 74.710938 50.15625 74.796875 L 50.15625 74.855469 L 48.785156 74.855469 C 48.804688 74.742188 48.832031 74.644531 48.875 74.554688 C 48.914062 74.46875 48.964844 74.394531 49.027344 74.332031 C 49.085938 74.265625 49.152344 74.21875 49.234375 74.1875 C 49.3125 74.15625 49.398438 74.136719 49.492188 74.136719 Z M 51.410156 73.59375 L 52.605469 76.6875 L 53.277344 76.6875 L 54.464844 73.59375 L 53.699219 73.59375 L 52.988281 75.808594 L 52.941406 76.019531 L 52.898438 75.808594 L 52.175781 73.59375 Z M 56.578125 76.746094 C 56.875 76.746094 57.132812 76.6875 57.347656 76.570312 C 57.5625 76.453125 57.722656 76.320312 57.820312 76.175781 L 57.445312 75.78125 C 57.351562 75.902344 57.230469 75.992188 57.085938 76.054688 C 56.9375 76.121094 56.785156 76.152344 56.625 76.152344 C 56.503906 76.152344 56.398438 76.132812 56.300781 76.09375 C 56.203125 76.054688 56.117188 76.003906 56.039062 75.933594 C 55.96875 75.867188 55.910156 75.792969 55.867188 75.707031 C 55.824219 75.625 55.789062 75.515625 55.765625 75.386719 L 55.765625 75.375 L 57.882812 75.375 L 57.882812 75.0625 C 57.882812 74.835938 57.851562 74.632812 57.792969 74.441406 C 57.730469 74.253906 57.640625 74.09375 57.523438 73.960938 C 57.402344 73.828125 57.257812 73.722656 57.085938 73.648438 C 56.914062 73.574219 56.71875 73.539062 56.496094 73.539062 C 56.289062 73.539062 56.09375 73.578125 55.914062 73.652344 C 55.734375 73.730469 55.578125 73.839844 55.445312 73.980469 C 55.3125 74.121094 55.210938 74.289062 55.136719 74.484375 C 55.0625 74.679688 55.023438 74.898438 55.023438 75.136719 L 55.023438 75.25 C 55.023438 75.460938 55.0625 75.65625 55.132812 75.839844 C 55.207031 76.019531 55.3125 76.179688 55.449219 76.3125 C 55.585938 76.445312 55.75 76.554688 55.941406 76.628906 C 56.132812 76.707031 56.34375 76.746094 56.578125 76.746094 Z M 56.488281 74.136719 C 56.597656 74.136719 56.691406 74.15625 56.773438 74.191406 C 56.855469 74.226562 56.921875 74.273438 56.980469 74.332031 C 57.035156 74.390625 57.078125 74.460938 57.109375 74.542969 C 57.140625 74.625 57.15625 74.710938 57.15625 74.796875 L 57.15625 74.855469 L 55.78125 74.855469 C 55.800781 74.742188 55.832031 74.644531 55.871094 74.554688 C 55.914062 74.46875 55.964844 74.394531 56.027344 74.332031 C 56.085938 74.265625 56.152344 74.21875 56.230469 74.1875 C 56.3125 74.15625 56.394531 74.136719 56.488281 74.136719 Z M 60.449219 72.296875 L 58.757812 72.296875 L 58.757812 72.90625 L 59.707031 72.90625 L 59.707031 76.082031 L 58.757812 76.082031 L 58.757812 76.6875 L 61.359375 76.6875 L 61.359375 76.082031 L 60.449219 76.082031 Z M 61.992188 75.113281 L 61.992188 75.171875 C 61.992188 75.402344 62.027344 75.609375 62.089844 75.800781 C 62.15625 75.992188 62.25 76.160156 62.375 76.300781 C 62.496094 76.441406 62.648438 76.550781 62.828125 76.628906 C 63.003906 76.710938 63.210938 76.75 63.441406 76.75 C 63.667969 76.75 63.871094 76.710938 64.050781 76.628906 C 64.226562 76.550781 64.378906 76.441406 64.503906 76.300781 C 64.625 76.160156 64.714844 75.992188 64.78125 75.800781 C 64.84375 75.609375 64.878906 75.402344 64.878906 75.171875 L 64.878906 75.113281 C 64.878906 74.890625 64.84375 74.679688 64.78125 74.488281 C 64.714844 74.296875 64.625 74.132812 64.503906 73.988281 C 64.378906 73.847656 64.226562 73.738281 64.046875 73.65625 C 63.867188 73.578125 63.664062 73.539062 63.433594 73.539062 C 63.207031 73.539062 63.003906 73.578125 62.824219 73.65625 C 62.644531 73.738281 62.496094 73.847656 62.375 73.988281 C 62.25 74.132812 62.15625 74.296875 62.089844 74.488281 C 62.027344 74.679688 61.992188 74.890625 61.992188 75.113281 Z M 62.726562 75.171875 L 62.726562 75.113281 C 62.726562 74.980469 62.742188 74.859375 62.769531 74.742188 C 62.796875 74.625 62.839844 74.519531 62.898438 74.429688 C 62.953125 74.339844 63.027344 74.265625 63.117188 74.214844 C 63.203125 74.164062 63.3125 74.136719 63.433594 74.136719 C 63.558594 74.136719 63.667969 74.164062 63.757812 74.214844 C 63.84375 74.265625 63.917969 74.339844 63.976562 74.429688 C 64.03125 74.519531 64.070312 74.625 64.097656 74.742188 C 64.125 74.859375 64.140625 74.980469 64.140625 75.113281 L 64.140625 75.171875 C 64.140625 75.308594 64.125 75.433594 64.097656 75.554688 C 64.070312 75.671875 64.03125 75.773438 63.976562 75.863281 C 63.917969 75.953125 63.84375 76.027344 63.757812 76.078125 C 63.667969 76.128906 63.5625 76.152344 63.441406 76.152344 C 63.316406 76.152344 63.207031 76.128906 63.117188 76.078125 C 63.027344 76.027344 62.953125 75.953125 62.898438 75.863281 C 62.839844 75.773438 62.796875 75.671875 62.769531 75.554688 C 62.742188 75.433594 62.726562 75.308594 62.726562 75.171875 Z M 65.617188 73.59375 L 65.617188 77.878906 L 66.355469 77.878906 L 66.355469 76.414062 C 66.390625 76.453125 66.429688 76.492188 66.46875 76.523438 C 66.507812 76.558594 66.550781 76.585938 66.597656 76.613281 C 66.671875 76.65625 66.757812 76.6875 66.847656 76.710938 C 66.933594 76.734375 67.03125 76.746094 67.140625 76.746094 C 67.332031 76.746094 67.503906 76.707031 67.65625 76.625 C 67.804688 76.546875 67.929688 76.4375 68.03125 76.292969 C 68.132812 76.15625 68.210938 75.988281 68.265625 75.796875 C 68.316406 75.605469 68.34375 75.398438 68.34375 75.171875 L 68.34375 75.109375 C 68.34375 74.878906 68.316406 74.664062 68.265625 74.472656 C 68.210938 74.277344 68.132812 74.113281 68.03125 73.972656 C 67.929688 73.835938 67.800781 73.730469 67.652344 73.652344 C 67.5 73.578125 67.328125 73.539062 67.132812 73.539062 C 67.035156 73.539062 66.941406 73.546875 66.855469 73.570312 C 66.769531 73.589844 66.691406 73.621094 66.621094 73.65625 C 66.5625 73.6875 66.511719 73.722656 66.460938 73.765625 C 66.414062 73.804688 66.367188 73.851562 66.324219 73.90625 L 66.296875 73.59375 Z M 67.605469 75.109375 L 67.605469 75.171875 C 67.605469 75.304688 67.59375 75.429688 67.570312 75.546875 C 67.542969 75.664062 67.507812 75.769531 67.453125 75.859375 C 67.398438 75.949219 67.328125 76.019531 67.246094 76.074219 C 67.160156 76.125 67.058594 76.152344 66.941406 76.152344 C 66.867188 76.152344 66.796875 76.144531 66.734375 76.125 C 66.675781 76.109375 66.621094 76.089844 66.574219 76.058594 C 66.527344 76.03125 66.484375 75.992188 66.449219 75.949219 C 66.410156 75.910156 66.378906 75.863281 66.355469 75.8125 L 66.355469 74.480469 C 66.382812 74.421875 66.414062 74.371094 66.457031 74.332031 C 66.496094 74.289062 66.542969 74.25 66.59375 74.222656 C 66.636719 74.195312 66.691406 74.175781 66.746094 74.164062 C 66.804688 74.152344 66.867188 74.144531 66.933594 74.144531 C 67.054688 74.144531 67.15625 74.167969 67.238281 74.21875 C 67.324219 74.269531 67.394531 74.335938 67.449219 74.425781 C 67.503906 74.511719 67.542969 74.617188 67.566406 74.734375 C 67.59375 74.851562 67.605469 74.976562 67.605469 75.109375 Z M 70.574219 76.746094 C 70.875 76.746094 71.132812 76.6875 71.347656 76.570312 C 71.5625 76.453125 71.71875 76.320312 71.820312 76.175781 L 71.441406 75.78125 C 71.347656 75.902344 71.230469 75.992188 71.082031 76.054688 C 70.9375 76.121094 70.78125 76.152344 70.621094 76.152344 C 70.503906 76.152344 70.394531 76.132812 70.296875 76.09375 C 70.199219 76.054688 70.113281 76.003906 70.039062 75.933594 C 69.964844 75.867188 69.90625 75.792969 69.867188 75.707031 C 69.824219 75.625 69.789062 75.515625 69.765625 75.386719 L 69.765625 75.375 L 71.878906 75.375 L 71.878906 75.0625 C 71.878906 74.835938 71.851562 74.632812 71.789062 74.441406 C 71.726562 74.253906 71.640625 74.09375 71.523438 73.960938 C 71.402344 73.828125 71.257812 73.722656 71.085938 73.648438 C 70.914062 73.574219 70.714844 73.539062 70.492188 73.539062 C 70.285156 73.539062 70.09375 73.578125 69.914062 73.652344 C 69.734375 73.730469 69.578125 73.839844 69.445312 73.980469 C 69.3125 74.121094 69.207031 74.289062 69.132812 74.484375 C 69.058594 74.679688 69.019531 74.898438 69.019531 75.136719 L 69.019531 75.25 C 69.019531 75.460938 69.058594 75.65625 69.132812 75.839844 C 69.207031 76.019531 69.3125 76.179688 69.449219 76.3125 C 69.585938 76.445312 69.75 76.554688 69.941406 76.628906 C 70.128906 76.707031 70.34375 76.746094 70.574219 76.746094 Z M 70.488281 74.136719 C 70.597656 74.136719 70.691406 74.15625 70.769531 74.191406 C 70.851562 74.226562 70.921875 74.273438 70.976562 74.332031 C 71.03125 74.390625 71.078125 74.460938 71.105469 74.542969 C 71.136719 74.625 71.152344 74.710938 71.152344 74.796875 L 71.152344 74.855469 L 69.78125 74.855469 C 69.800781 74.742188 69.832031 74.644531 69.871094 74.554688 C 69.914062 74.46875 69.964844 74.394531 70.023438 74.332031 C 70.082031 74.265625 70.152344 74.21875 70.230469 74.1875 C 70.308594 74.15625 70.394531 74.136719 70.488281 74.136719 Z M 74.78125 73.539062 C 74.570312 73.539062 74.378906 73.589844 74.203125 73.6875 C 74.027344 73.789062 73.878906 73.925781 73.753906 74.097656 L 73.746094 74.027344 L 73.714844 73.59375 L 73.03125 73.59375 L 73.03125 76.6875 L 73.769531 76.6875 L 73.769531 74.804688 C 73.800781 74.714844 73.847656 74.636719 73.902344 74.570312 C 73.957031 74.5 74.023438 74.445312 74.097656 74.402344 C 74.164062 74.359375 74.242188 74.328125 74.328125 74.308594 C 74.417969 74.285156 74.515625 74.273438 74.621094 74.273438 C 74.722656 74.273438 74.824219 74.28125 74.929688 74.292969 C 75.035156 74.304688 75.140625 74.324219 75.242188 74.351562 L 75.351562 73.613281 C 75.292969 73.59375 75.210938 73.578125 75.105469 73.5625 C 75.003906 73.546875 74.894531 73.539062 74.78125 73.539062 Z M 74.78125 73.539062 "/>
</g>
<g clip-path="url(#clip3)" clip-rule="nonzero">
<path style=" stroke:none;fill-rule:nonzero;fill:rgb(100%,100%,100%);fill-opacity:1;" d="M 45.410156 24.601562 C 45.746094 24.601562 46.015625 25.058594 46.015625 25.625 L 46.015625 52.253906 C 46.015625 52.820312 45.746094 53.277344 45.410156 53.277344 C 45.074219 53.277344 44.804688 52.820312 44.804688 52.253906 L 44.804688 25.625 C 44.804688 25.058594 45.074219 24.601562 45.410156 24.601562 Z M 45.410156 24.601562 "/>
</g>
<g clip-path="url(#clip4)" clip-rule="nonzero">
<path style=" stroke:none;fill-rule:nonzero;fill:rgb(100%,100%,100%);fill-opacity:1;" d="M 50.472656 37.003906 L 50.472656 27.339844 L 58.671875 27.339844 L 58.671875 29.0625 L 52.425781 29.0625 L 52.425781 30.992188 L 57.953125 30.992188 L 57.953125 32.605469 L 52.425781 32.605469 L 52.425781 35.292969 L 58.800781 35.292969 L 58.800781 37.003906 Z M 60.738281 37.003906 L 60.738281 29.710938 L 62.558594 29.710938 L 62.558594 30.328125 C 63.046875 30.050781 63.507812 29.859375 63.949219 29.746094 C 64.390625 29.636719 64.824219 29.582031 65.246094 29.582031 C 65.800781 29.582031 66.3125 29.660156 66.785156 29.824219 C 67.257812 29.988281 67.664062 30.230469 68.011719 30.550781 C 68.355469 30.871094 68.625 31.273438 68.820312 31.753906 C 69.015625 32.234375 69.113281 32.789062 69.113281 33.417969 L 69.113281 37.003906 L 67.296875 37.003906 L 67.296875 33.714844 C 67.296875 33.316406 67.242188 32.957031 67.128906 32.644531 C 67.015625 32.328125 66.851562 32.0625 66.640625 31.847656 C 66.429688 31.628906 66.171875 31.464844 65.871094 31.351562 C 65.570312 31.238281 65.230469 31.179688 64.859375 31.179688 C 64.660156 31.179688 64.460938 31.203125 64.253906 31.246094 C 64.042969 31.285156 63.839844 31.34375 63.640625 31.417969 C 63.445312 31.496094 63.253906 31.589844 63.066406 31.703125 C 62.882812 31.816406 62.714844 31.945312 62.558594 32.089844 L 62.558594 37.003906 Z M 71.347656 37.003906 L 71.347656 29.710938 L 73.171875 29.710938 L 73.171875 30.761719 C 73.574219 30.460938 73.996094 30.199219 74.445312 29.984375 C 74.894531 29.761719 75.339844 29.597656 75.78125 29.480469 L 76.320312 31.15625 C 75.617188 31.226562 75 31.382812 74.46875 31.628906 C 73.9375 31.875 73.503906 32.21875 73.171875 32.664062 L 73.171875 37.003906 Z M 78.632812 28.714844 C 78.453125 28.714844 78.289062 28.6875 78.140625 28.636719 C 77.996094 28.585938 77.875 28.515625 77.773438 28.429688 C 77.667969 28.339844 77.589844 28.234375 77.535156 28.117188 C 77.480469 28 77.453125 27.875 77.453125 27.746094 C 77.453125 27.609375 77.480469 27.480469 77.535156 27.363281 C 77.589844 27.246094 77.667969 27.144531 77.773438 27.058594 C 77.875 26.972656 77.996094 26.902344 78.140625 26.851562 C 78.289062 26.796875 78.453125 26.773438 78.632812 26.773438 C 78.816406 26.773438 78.980469 26.796875 79.128906 26.851562 C 79.273438 26.902344 79.398438 26.972656 79.5 27.058594 C 79.605469 27.144531 79.683594 27.246094 79.738281 27.363281 C 79.792969 27.480469 79.820312 27.609375 79.820312 27.746094 C 79.820312 27.875 79.792969 28 79.738281 28.117188 C 79.683594 28.234375 79.605469 28.339844 79.5 28.429688 C 79.398438 28.515625 79.273438 28.585938 79.128906 28.636719 C 78.980469 28.6875 78.816406 28.714844 78.632812 28.714844 Z M 77.722656 37.003906 L 77.722656 29.710938 L 79.542969 29.710938 L 79.542969 37.003906 Z M 81.441406 33.390625 C 81.441406 32.808594 81.550781 32.285156 81.765625 31.8125 C 81.984375 31.347656 82.285156 30.945312 82.667969 30.617188 C 83.054688 30.285156 83.507812 30.027344 84.035156 29.847656 C 84.566406 29.667969 85.136719 29.582031 85.75 29.582031 C 86.28125 29.582031 86.765625 29.640625 87.210938 29.761719 C 87.652344 29.882812 88.039062 30.042969 88.363281 30.238281 L 88.363281 29.710938 L 90.1875 29.710938 L 90.1875 39.988281 L 88.363281 39.988281 L 88.363281 36.320312 C 88.203125 36.429688 88.019531 36.535156 87.816406 36.636719 C 87.609375 36.734375 87.390625 36.820312 87.152344 36.894531 C 86.921875 36.96875 86.675781 37.027344 86.421875 37.070312 C 86.164062 37.113281 85.902344 37.136719 85.640625 37.136719 C 85.023438 37.136719 84.460938 37.042969 83.941406 36.863281 C 83.429688 36.679688 82.988281 36.425781 82.617188 36.097656 C 82.246094 35.765625 81.957031 35.375 81.75 34.914062 C 81.542969 34.453125 81.441406 33.945312 81.441406 33.390625 Z M 83.355469 33.390625 C 83.355469 33.679688 83.414062 33.957031 83.53125 34.21875 C 83.648438 34.476562 83.816406 34.707031 84.035156 34.902344 C 84.253906 35.097656 84.519531 35.25 84.832031 35.363281 C 85.140625 35.476562 85.488281 35.535156 85.875 35.535156 C 86.121094 35.535156 86.359375 35.511719 86.59375 35.464844 C 86.828125 35.417969 87.050781 35.347656 87.261719 35.261719 C 87.472656 35.175781 87.671875 35.070312 87.859375 34.945312 C 88.046875 34.824219 88.214844 34.683594 88.363281 34.53125 L 88.363281 32.003906 C 87.988281 31.707031 87.605469 31.496094 87.207031 31.371094 C 86.8125 31.246094 86.40625 31.179688 85.992188 31.179688 C 85.574219 31.179688 85.199219 31.238281 84.875 31.351562 C 84.546875 31.464844 84.273438 31.621094 84.050781 31.820312 C 83.824219 32.015625 83.652344 32.25 83.535156 32.519531 C 83.414062 32.785156 83.355469 33.074219 83.355469 33.390625 Z M 92.414062 33.523438 L 92.414062 29.703125 L 94.230469 29.703125 L 94.230469 33.265625 C 94.230469 33.601562 94.269531 33.910156 94.34375 34.191406 C 94.417969 34.46875 94.542969 34.707031 94.71875 34.902344 C 94.898438 35.101562 95.136719 35.253906 95.433594 35.363281 C 95.730469 35.472656 96.101562 35.53125 96.546875 35.53125 C 96.753906 35.53125 96.96875 35.507812 97.183594 35.460938 C 97.398438 35.414062 97.605469 35.351562 97.804688 35.269531 C 98 35.191406 98.183594 35.097656 98.351562 34.984375 C 98.523438 34.875 98.667969 34.75 98.792969 34.621094 L 98.792969 29.703125 L 100.613281 29.703125 L 100.613281 37.003906 L 98.792969 37.003906 L 98.792969 36.378906 C 98.347656 36.648438 97.898438 36.839844 97.445312 36.957031 C 96.992188 37.070312 96.5625 37.128906 96.160156 37.128906 C 95.492188 37.128906 94.921875 37.050781 94.449219 36.890625 C 93.972656 36.726562 93.585938 36.492188 93.285156 36.1875 C 92.984375 35.878906 92.761719 35.503906 92.621094 35.054688 C 92.484375 34.609375 92.414062 34.097656 92.414062 33.523438 Z M 102.585938 33.332031 C 102.585938 32.839844 102.6875 32.367188 102.886719 31.914062 C 103.089844 31.460938 103.378906 31.0625 103.753906 30.71875 C 104.132812 30.371094 104.597656 30.09375 105.144531 29.890625 C 105.691406 29.683594 106.316406 29.582031 107.015625 29.582031 C 107.707031 29.582031 108.332031 29.683594 108.886719 29.890625 C 109.445312 30.101562 109.917969 30.386719 110.304688 30.746094 C 110.695312 31.109375 110.992188 31.539062 111.199219 32.03125 C 111.40625 32.519531 111.507812 33.042969 111.507812 33.605469 C 111.507812 33.675781 111.507812 33.75 111.507812 33.828125 C 111.503906 33.910156 111.5 33.984375 111.492188 34.050781 L 104.617188 34.050781 C 104.695312 34.269531 104.824219 34.46875 104.996094 34.652344 C 105.171875 34.832031 105.390625 34.988281 105.652344 35.117188 C 105.914062 35.25 106.21875 35.351562 106.566406 35.425781 C 106.910156 35.5 107.292969 35.535156 107.710938 35.535156 C 108.128906 35.535156 108.542969 35.488281 108.957031 35.398438 C 109.375 35.3125 109.769531 35.199219 110.148438 35.0625 L 110.765625 36.460938 C 110.527344 36.574219 110.285156 36.671875 110.039062 36.753906 C 109.796875 36.839844 109.542969 36.910156 109.277344 36.964844 C 109.011719 37.019531 108.734375 37.0625 108.445312 37.09375 C 108.15625 37.121094 107.851562 37.136719 107.53125 37.136719 C 106.714844 37.136719 105.996094 37.035156 105.382812 36.839844 C 104.765625 36.640625 104.25 36.371094 103.835938 36.027344 C 103.421875 35.6875 103.109375 35.285156 102.898438 34.824219 C 102.691406 34.363281 102.585938 33.867188 102.585938 33.332031 Z M 104.617188 32.621094 L 109.578125 32.621094 C 109.511719 32.417969 109.410156 32.230469 109.269531 32.058594 C 109.132812 31.882812 108.960938 31.730469 108.757812 31.597656 C 108.550781 31.46875 108.3125 31.367188 108.042969 31.292969 C 107.773438 31.21875 107.476562 31.179688 107.148438 31.179688 C 106.804688 31.179688 106.492188 31.222656 106.207031 31.300781 C 105.925781 31.378906 105.675781 31.480469 105.460938 31.613281 C 105.25 31.746094 105.070312 31.898438 104.929688 32.074219 C 104.789062 32.246094 104.683594 32.429688 104.617188 32.621094 Z M 104.617188 32.621094 "/>
</g>
<g clip-path="url(#clip5)" clip-rule="nonzero">
<path style=" stroke:none;fill-rule:nonzero;fill:rgb(100%,100%,100%);fill-opacity:1;" d="M 53.40625 50.976562 L 49.1875 41.3125 L 51.347656 41.3125 L 54.371094 48.683594 L 57.394531 41.3125 L 59.554688 41.3125 L 55.339844 50.976562 Z M 60.429688 48.679688 C 60.429688 48.328125 60.507812 48.007812 60.660156 47.71875 C 60.808594 47.429688 61.039062 47.179688 61.34375 46.972656 C 61.644531 46.765625 62.027344 46.605469 62.480469 46.492188 C 62.933594 46.378906 63.460938 46.324219 64.0625 46.324219 C 64.511719 46.324219 64.980469 46.355469 65.476562 46.421875 C 65.972656 46.488281 66.480469 46.589844 67.007812 46.722656 C 66.988281 46.492188 66.917969 46.28125 66.796875 46.085938 C 66.679688 45.890625 66.511719 45.71875 66.304688 45.574219 C 66.089844 45.433594 65.835938 45.324219 65.539062 45.246094 C 65.242188 45.167969 64.902344 45.128906 64.523438 45.128906 C 64.320312 45.128906 64.09375 45.140625 63.847656 45.164062 C 63.601562 45.191406 63.347656 45.226562 63.085938 45.277344 C 62.824219 45.324219 62.5625 45.386719 62.304688 45.460938 C 62.050781 45.535156 61.8125 45.625 61.589844 45.726562 L 61.035156 44.226562 C 61.308594 44.125 61.605469 44.035156 61.917969 43.953125 C 62.230469 43.871094 62.550781 43.800781 62.878906 43.738281 C 63.210938 43.679688 63.539062 43.632812 63.867188 43.601562 C 64.195312 43.566406 64.511719 43.550781 64.820312 43.550781 C 66.179688 43.550781 67.191406 43.898438 67.851562 44.597656 C 68.511719 45.292969 68.84375 46.359375 68.84375 47.800781 L 68.84375 50.976562 L 67.019531 50.976562 L 67.019531 50.292969 C 66.832031 50.402344 66.625 50.507812 66.402344 50.609375 C 66.175781 50.707031 65.933594 50.792969 65.671875 50.867188 C 65.40625 50.941406 65.125 51 64.824219 51.042969 C 64.523438 51.085938 64.203125 51.105469 63.867188 51.105469 C 63.300781 51.105469 62.800781 51.046875 62.375 50.921875 C 61.945312 50.796875 61.585938 50.628906 61.300781 50.40625 C 61.011719 50.191406 60.792969 49.933594 60.648438 49.636719 C 60.503906 49.34375 60.429688 49.023438 60.429688 48.679688 Z M 62.351562 48.613281 C 62.351562 48.734375 62.382812 48.851562 62.445312 48.960938 C 62.507812 49.070312 62.605469 49.167969 62.738281 49.25 C 62.875 49.335938 63.050781 49.402344 63.261719 49.453125 C 63.472656 49.503906 63.726562 49.53125 64.027344 49.53125 C 64.347656 49.53125 64.65625 49.503906 64.957031 49.445312 C 65.253906 49.386719 65.535156 49.308594 65.792969 49.214844 C 66.050781 49.121094 66.289062 49.011719 66.496094 48.886719 C 66.707031 48.765625 66.878906 48.636719 67.019531 48.503906 L 67.019531 48.183594 C 66.738281 48.105469 66.464844 48.039062 66.191406 47.984375 C 65.917969 47.933594 65.65625 47.890625 65.410156 47.859375 C 65.160156 47.828125 64.925781 47.804688 64.707031 47.792969 C 64.488281 47.78125 64.296875 47.773438 64.132812 47.773438 C 63.789062 47.773438 63.507812 47.796875 63.28125 47.84375 C 63.054688 47.886719 62.875 47.949219 62.734375 48.023438 C 62.59375 48.101562 62.496094 48.191406 62.4375 48.292969 C 62.378906 48.394531 62.351562 48.503906 62.351562 48.613281 Z M 70.6875 47.359375 C 70.6875 46.78125 70.796875 46.253906 71.015625 45.785156 C 71.234375 45.316406 71.535156 44.917969 71.917969 44.589844 C 72.300781 44.253906 72.757812 44 73.285156 43.820312 C 73.8125 43.640625 74.382812 43.550781 75 43.550781 C 75.261719 43.550781 75.523438 43.566406 75.777344 43.601562 C 76.035156 43.632812 76.28125 43.679688 76.519531 43.738281 C 76.753906 43.792969 76.976562 43.863281 77.183594 43.945312 C 77.390625 44.027344 77.574219 44.113281 77.734375 44.207031 L 77.734375 40.722656 L 79.558594 40.722656 L 79.558594 50.976562 L 77.734375 50.976562 L 77.734375 50.292969 C 77.574219 50.402344 77.386719 50.507812 77.167969 50.609375 C 76.949219 50.707031 76.714844 50.792969 76.464844 50.867188 C 76.214844 50.941406 75.953125 51 75.6875 51.042969 C 75.417969 51.085938 75.152344 51.105469 74.886719 51.105469 C 74.273438 51.105469 73.707031 51.015625 73.195312 50.835938 C 72.675781 50.652344 72.234375 50.398438 71.863281 50.070312 C 71.496094 49.738281 71.207031 49.34375 71 48.886719 C 70.792969 48.425781 70.6875 47.917969 70.6875 47.359375 Z M 72.601562 47.359375 C 72.601562 47.652344 72.664062 47.929688 72.78125 48.1875 C 72.898438 48.449219 73.066406 48.675781 73.285156 48.875 C 73.503906 49.070312 73.769531 49.222656 74.078125 49.335938 C 74.386719 49.449219 74.738281 49.507812 75.125 49.507812 C 75.367188 49.507812 75.613281 49.484375 75.863281 49.433594 C 76.109375 49.386719 76.34375 49.320312 76.574219 49.234375 C 76.800781 49.148438 77.015625 49.042969 77.214844 48.917969 C 77.414062 48.796875 77.585938 48.65625 77.734375 48.503906 L 77.734375 45.976562 C 77.546875 45.828125 77.355469 45.703125 77.148438 45.597656 C 76.945312 45.496094 76.734375 45.410156 76.519531 45.34375 C 76.308594 45.28125 76.089844 45.230469 75.875 45.199219 C 75.65625 45.167969 75.445312 45.152344 75.238281 45.152344 C 74.820312 45.152344 74.449219 45.210938 74.121094 45.324219 C 73.796875 45.4375 73.519531 45.59375 73.296875 45.792969 C 73.074219 45.988281 72.902344 46.222656 72.78125 46.488281 C 72.664062 46.757812 72.601562 47.046875 72.601562 47.359375 Z M 82.746094 42.6875 C 82.566406 42.6875 82.402344 42.660156 82.257812 42.609375 C 82.113281 42.558594 81.988281 42.488281 81.886719 42.398438 C 81.78125 42.3125 81.703125 42.207031 81.648438 42.089844 C 81.59375 41.972656 81.566406 41.847656 81.566406 41.714844 C 81.566406 41.578125 81.59375 41.453125 81.648438 41.335938 C 81.703125 41.21875 81.78125 41.117188 81.886719 41.03125 C 81.988281 40.945312 82.113281 40.875 82.257812 40.824219 C 82.402344 40.769531 82.566406 40.742188 82.746094 40.742188 C 82.929688 40.742188 83.097656 40.769531 83.242188 40.824219 C 83.386719 40.875 83.511719 40.945312 83.617188 41.03125 C 83.71875 41.117188 83.796875 41.21875 83.851562 41.335938 C 83.90625 41.453125 83.9375 41.578125 83.9375 41.714844 C 83.9375 41.847656 83.90625 41.972656 83.851562 42.089844 C 83.796875 42.207031 83.71875 42.3125 83.617188 42.398438 C 83.511719 42.488281 83.386719 42.558594 83.242188 42.609375 C 83.097656 42.660156 82.929688 42.6875 82.746094 42.6875 Z M 81.835938 50.976562 L 81.835938 43.679688 L 83.660156 43.679688 L 83.660156 50.976562 Z M 86.042969 50.976562 L 86.042969 40.722656 L 87.863281 40.722656 L 87.863281 50.976562 Z M 90.246094 50.976562 L 90.246094 40.722656 L 92.070312 40.722656 L 92.070312 50.976562 Z M 93.964844 47.332031 C 93.964844 46.808594 94.070312 46.316406 94.28125 45.859375 C 94.492188 45.402344 94.796875 45 95.1875 44.660156 C 95.578125 44.316406 96.054688 44.046875 96.609375 43.847656 C 97.167969 43.652344 97.792969 43.550781 98.484375 43.550781 C 99.179688 43.550781 99.804688 43.652344 100.359375 43.847656 C 100.917969 44.046875 101.390625 44.316406 101.78125 44.660156 C 102.175781 45 102.476562 45.402344 102.6875 45.859375 C 102.898438 46.316406 103.007812 46.808594 103.007812 47.332031 C 103.007812 47.855469 102.898438 48.34375 102.6875 48.800781 C 102.476562 49.261719 102.175781 49.660156 101.78125 50 C 101.390625 50.34375 100.917969 50.613281 100.359375 50.8125 C 99.804688 51.007812 99.179688 51.105469 98.484375 51.105469 C 97.792969 51.105469 97.167969 51.007812 96.609375 50.8125 C 96.054688 50.613281 95.578125 50.34375 95.1875 50 C 94.796875 49.660156 94.492188 49.261719 94.28125 48.800781 C 94.070312 48.34375 93.964844 47.855469 93.964844 47.332031 Z M 95.882812 47.332031 C 95.882812 47.621094 95.941406 47.898438 96.058594 48.160156 C 96.171875 48.421875 96.34375 48.652344 96.566406 48.851562 C 96.789062 49.054688 97.0625 49.210938 97.386719 49.328125 C 97.707031 49.449219 98.074219 49.507812 98.484375 49.507812 C 98.898438 49.507812 99.261719 49.449219 99.582031 49.328125 C 99.90625 49.210938 100.179688 49.054688 100.402344 48.851562 C 100.625 48.652344 100.796875 48.421875 100.914062 48.160156 C 101.03125 47.898438 101.089844 47.621094 101.089844 47.332031 C 101.089844 47.039062 101.03125 46.757812 100.914062 46.496094 C 100.796875 46.230469 100.625 46 100.402344 45.796875 C 100.179688 45.597656 99.90625 45.441406 99.582031 45.324219 C 99.261719 45.207031 98.898438 45.148438 98.484375 45.148438 C 98.074219 45.148438 97.707031 45.207031 97.386719 45.324219 C 97.0625 45.441406 96.789062 45.597656 96.566406 45.796875 C 96.34375 46 96.171875 46.230469 96.058594 46.496094 C 95.941406 46.757812 95.882812 47.039062 95.882812 47.332031 Z M 95.882812 47.332031 "/>
</g>
<g clip-path="url(#clip6)" clip-rule="nonzero">
<path style=" stroke:none;fill-rule:nonzero;fill:rgb(100%,100%,100%);fill-opacity:1;" d="M 36.722656 34.890625 C 35.839844 34.601562 34.867188 34.355469 33.832031 34.148438 C 34.167969 33.148438 34.449219 32.179688 34.640625 31.269531 C 35.351562 27.957031 34.992188 25.78125 33.605469 24.976562 C 33.257812 24.773438 32.855469 24.671875 32.414062 24.671875 C 31.761719 24.671875 31.019531 24.902344 30.21875 25.335938 C 29.929688 25.109375 29.570312 24.96875 29.175781 24.96875 C 28.234375 24.96875 27.46875 25.738281 27.46875 26.683594 C 27.46875 26.894531 27.511719 27.097656 27.582031 27.285156 C 26.925781 27.882812 26.253906 28.578125 25.574219 29.351562 C 23.027344 26.4375 20.539062 24.671875 18.734375 24.671875 C 18.292969 24.671875 17.894531 24.773438 17.546875 24.976562 C 16.15625 25.78125 15.796875 27.957031 16.507812 31.269531 C 16.703125 32.179688 16.980469 33.148438 17.316406 34.148438 C 16.28125 34.355469 15.308594 34.601562 14.425781 34.890625 C 11.214844 35.929688 9.515625 37.328125 9.515625 38.9375 C 9.515625 40.042969 10.316406 41.050781 11.859375 41.910156 C 11.824219 42.042969 11.804688 42.175781 11.804688 42.320312 C 11.804688 43.265625 12.566406 44.035156 13.511719 44.035156 C 14.148438 44.035156 14.695312 43.679688 14.988281 43.164062 C 15.71875 43.375 16.496094 43.566406 17.316406 43.730469 C 16.980469 44.730469 16.703125 45.699219 16.507812 46.609375 C 15.800781 49.921875 16.160156 52.097656 17.546875 52.902344 C 17.894531 53.101562 18.292969 53.207031 18.734375 53.207031 C 20.539062 53.207031 23.027344 51.441406 25.574219 48.523438 C 28.125 51.441406 30.609375 53.207031 32.414062 53.207031 C 32.855469 53.207031 33.253906 53.105469 33.601562 52.902344 C 34.660156 52.289062 35.117188 50.878906 34.964844 48.78125 C 35.558594 48.511719 35.972656 47.917969 35.972656 47.222656 C 35.972656 46.3125 35.265625 45.578125 34.378906 45.515625 C 34.222656 44.9375 34.039062 44.339844 33.832031 43.730469 C 34.867188 43.523438 35.839844 43.277344 36.722656 42.988281 C 39.933594 41.949219 41.632812 40.550781 41.632812 38.9375 C 41.632812 37.328125 39.933594 35.929688 36.722656 34.890625 Z M 28.21875 28.101562 C 28.492188 28.289062 28.820312 28.402344 29.179688 28.402344 C 30.121094 28.402344 30.886719 27.632812 30.886719 26.683594 C 30.886719 26.511719 30.851562 26.351562 30.804688 26.191406 C 31.425781 25.871094 31.972656 25.703125 32.414062 25.703125 C 32.675781 25.703125 32.898438 25.757812 33.089844 25.867188 C 34.015625 26.40625 34.222656 28.34375 33.640625 31.054688 C 33.445312 31.96875 33.160156 32.949219 32.8125 33.960938 C 31.519531 33.742188 30.140625 33.585938 28.707031 33.492188 C 27.902344 32.277344 27.074219 31.152344 26.246094 30.148438 C 26.925781 29.363281 27.585938 28.683594 28.21875 28.101562 Z M 29.472656 41.199219 C 29.03125 41.96875 28.582031 42.699219 28.136719 43.390625 C 27.308594 43.4375 26.457031 43.460938 25.574219 43.460938 C 24.691406 43.460938 23.839844 43.4375 23.015625 43.390625 C 22.566406 42.699219 22.117188 41.96875 21.675781 41.199219 C 21.242188 40.445312 20.839844 39.6875 20.457031 38.933594 C 20.832031 38.195312 21.234375 37.445312 21.675781 36.679688 C 22.117188 35.910156 22.566406 35.179688 23.015625 34.488281 C 23.839844 34.441406 24.691406 34.417969 25.574219 34.417969 C 26.457031 34.417969 27.308594 34.441406 28.136719 34.488281 C 28.582031 35.179688 29.03125 35.910156 29.472656 36.679688 C 29.914062 37.445312 30.316406 38.195312 30.691406 38.933594 C 30.3125 39.6875 29.90625 40.445312 29.472656 41.199219 Z M 31.253906 40.085938 C 31.714844 41.070312 32.117188 42.023438 32.460938 42.933594 C 31.507812 43.089844 30.484375 43.214844 29.40625 43.304688 C 29.730469 42.789062 30.046875 42.257812 30.359375 41.714844 C 30.671875 41.171875 30.96875 40.628906 31.253906 40.085938 Z M 27.425781 44.453125 C 26.804688 45.355469 26.183594 46.183594 25.574219 46.933594 C 24.964844 46.183594 24.34375 45.355469 23.722656 44.453125 C 24.332031 44.476562 24.949219 44.488281 25.574219 44.488281 C 26.199219 44.488281 26.816406 44.476562 27.425781 44.453125 Z M 21.742188 43.304688 C 20.664062 43.214844 19.640625 43.089844 18.6875 42.929688 C 19.03125 42.023438 19.433594 41.070312 19.894531 40.085938 C 20.183594 40.628906 20.476562 41.171875 20.789062 41.714844 C 21.101562 42.257812 21.421875 42.789062 21.742188 43.304688 Z M 19.898438 37.789062 C 19.445312 36.824219 19.039062 35.871094 18.6875 34.945312 C 19.644531 34.789062 20.664062 34.664062 21.742188 34.574219 C 21.421875 35.089844 21.101562 35.621094 20.789062 36.164062 C 20.476562 36.707031 20.183594 37.246094 19.898438 37.789062 Z M 23.722656 33.425781 C 24.34375 32.523438 24.964844 31.695312 25.574219 30.945312 C 26.183594 31.695312 26.804688 32.523438 27.425781 33.425781 C 26.816406 33.402344 26.199219 33.390625 25.574219 33.390625 C 24.949219 33.390625 24.332031 33.402344 23.722656 33.425781 Z M 30.359375 36.164062 C 30.046875 35.621094 29.730469 35.089844 29.40625 34.574219 C 30.484375 34.664062 31.507812 34.789062 32.460938 34.945312 C 32.109375 35.871094 31.703125 36.824219 31.25 37.789062 C 30.964844 37.246094 30.671875 36.707031 30.359375 36.164062 Z M 17.507812 31.054688 C 16.929688 28.34375 17.132812 26.402344 18.058594 25.867188 C 18.25 25.753906 18.472656 25.703125 18.734375 25.703125 C 20.085938 25.703125 22.371094 27.230469 24.902344 30.144531 C 24.078125 31.152344 23.25 32.273438 22.441406 33.492188 C 21.007812 33.585938 19.628906 33.742188 18.335938 33.960938 C 17.988281 32.945312 17.703125 31.96875 17.507812 31.054688 Z M 15.203125 42.144531 C 15.113281 41.28125 14.394531 40.605469 13.511719 40.605469 C 13.085938 40.605469 12.703125 40.765625 12.402344 41.023438 C 11.207031 40.363281 10.542969 39.636719 10.542969 38.9375 C 10.542969 37.523438 13.253906 36 17.660156 35.132812 C 18.121094 36.367188 18.671875 37.644531 19.308594 38.9375 C 18.671875 40.234375 18.121094 41.511719 17.660156 42.746094 C 16.769531 42.570312 15.945312 42.371094 15.203125 42.144531 Z M 18.734375 52.175781 C 18.472656 52.175781 18.25 52.121094 18.058594 52.011719 C 16.835938 51.300781 16.878906 48.183594 18.335938 43.917969 C 19.628906 44.136719 21.007812 44.292969 22.441406 44.386719 C 23.25 45.605469 24.078125 46.726562 24.902344 47.734375 C 22.371094 50.648438 20.085938 52.175781 18.734375 52.175781 Z M 33.378906 45.761719 C 32.886719 46.0625 32.554688 46.601562 32.554688 47.222656 C 32.554688 48.054688 33.148438 48.75 33.9375 48.902344 C 34.046875 50.519531 33.757812 51.625 33.089844 52.011719 C 32.898438 52.121094 32.675781 52.175781 32.414062 52.175781 C 31.0625 52.175781 28.777344 50.648438 26.246094 47.734375 C 27.074219 46.726562 27.902344 45.605469 28.707031 44.386719 C 30.144531 44.292969 31.523438 44.136719 32.816406 43.917969 C 33.035156 44.558594 33.222656 45.175781 33.378906 45.761719 Z M 33.488281 42.746094 C 33.027344 41.511719 32.476562 40.234375 31.839844 38.9375 C 32.476562 37.644531 33.027344 36.367188 33.488281 35.132812 C 37.894531 36 40.605469 37.523438 40.605469 38.9375 C 40.605469 40.355469 37.894531 41.878906 33.488281 42.746094 Z M 33.488281 42.746094 "/>
</g>
<path style=" stroke:none;fill-rule:nonzero;fill:rgb(100%,100%,100%);fill-opacity:1;" d="M 27.964844 38.9375 C 27.964844 40.265625 26.894531 41.339844 25.574219 41.339844 C 24.253906 41.339844 23.183594 40.265625 23.183594 38.9375 C 23.183594 37.613281 24.253906 36.539062 25.574219 36.539062 C 26.894531 36.539062 27.964844 37.613281 27.964844 38.9375 Z M 27.964844 38.9375 "/>
</g>
</svg>
