<?xml version="1.0" encoding="utf-8"?>
<!-- Svg Vector Icons : http://www.onlinewebfonts.com/icon -->
<!DOCTYPE svg PUBLIC "-//W3C//DTD SVG 1.1//EN" "http://www.w3.org/Graphics/SVG/1.1/DTD/svg11.dtd">
<svg version="1.1" xmlns="http://www.w3.org/2000/svg" xmlns:xlink="http://www.w3.org/1999/xlink" x="0px" y="0px" viewBox="0 0 1000 1000" enable-background="new 0 0 1000 1000" xml:space="preserve">
<metadata> Svg Vector Icons : http://www.onlinewebfonts.com/icon </metadata>
<g><g transform="translate(0.000000,511.000000) scale(0.100000,-0.100000)"><path d="M4772,4996.7c-258.3-66.1-558.5-316.3-772.7-640.6c-210.2-322.3-424.4-820.8-542.5-1261.2c-24-94.1-52.1-178.2-60.1-188.2c-8-8-130.1,12-272.3,46c-466.4,112.1-620.6,130.1-1087,132.1c-472.5,0-582.6-18-836.8-132.1c-518.5-232.2-688.7-706.7-478.5-1321.3c70.1-204.2,72.1-216.2,44.1-286.3c-114.1-272.3,94.1-592.6,384.4-592.6c70.1,0,86.1-10,166.2-114.1c50.1-64.1,178.2-208.2,288.3-322.3l198.2-204.2L1615-84.1C1162.5-550.6,856.3-1009,714.1-1429.4c-88.1-258.3-102.1-532.5-42.1-734.7c100.1-324.3,362.4-542.5,794.8-658.6c118.1-32,210.2-38,570.5-38c466.4,2,620.6,20,1087,132.1c142.1,34,264.3,54.1,272.3,46c8-10,36-94.1,60.1-188.2c174.2-654.6,490.5-1273.2,812.8-1593.5c208.2-204.2,418.4-308.3,654.6-322.3c208.2-14,338.3,14,524.5,112.1c430.4,222.2,850.8,914.9,1093.1,1803.7c26,94.1,54.1,178.2,62.1,188.2c8,8,130.1-12,272.3-46c142.1-34,360.3-78.1,486.5-96.1l230.2-34l92.1-94.1c144.1-148.1,312.3-176.2,496.5-86.1c58,30,124.1,82.1,148.1,118.1c36,54.1,62.1,68.1,192.2,98.1c424.4,100.1,706.7,328.3,806.8,658.6c86.1,284.3,18,688.7-180.2,1063c-170.2,324.3-438.4,682.7-762.7,1017l-188.2,196.2l214.2,220.2c236.2,248.2,516.5,610.6,656.6,850.8c532.5,910.9,340.3,1623.6-496.5,1853.8c-122.1,32-234.2,44-498.5,52.1c-456.4,14-688.7-18-1425.4-188.2c-28-6-48,0-54,16c-158.1,516.5-172.2,578.6-144.1,634.6c112.1,222.2-10,522.5-244.2,590.6c-70.1,22-96.1,46.1-204.2,212.2c-174.2,264.3-376.4,458.4-588.6,564.5c-160.2,78.1-182.2,84.1-366.3,90.1C4938.2,5012.7,4816.1,5006.7,4772,4996.7z M5220.4,4536.3c122.1-62.1,286.3-224.2,400.4-394.4l98.1-146.1l-38-86.1c-102.1-224.2,24-500.5,262.2-576.6l88.1-28l74.1-240.2c40-132.1,74.1-254.3,74.1-272.3c2-22-92.1-66.1-330.3-156.1c-182.2-68.1-440.4-174.2-574.5-234.2c-134.1-60.1-258.3-108.1-274.3-108.1c-16,0-140.1,50-276.3,110.1c-136.1,60.1-394.4,166.2-576.6,234.2l-332.3,122.1l14,72.1c28,148.1,216.2,678.6,318.3,892.9C4487.7,4442.2,4858.1,4720.5,5220.4,4536.3z M2652,2614.5c246.2-42,620.6-128.1,636.6-144.1c6-6-12-140.1-38-298.3c-28-158.1-64.1-414.4-82.1-568.5c-18-154.2-36-308.3-42-342.3c-8-54-52.1-94.1-304.3-282.3c-162.2-122.1-388.4-300.3-502.5-396.4l-208.2-174.2l-108.1,108.1c-60.1,58-182.2,190.2-272.3,294.3l-162.2,188.2l4,134.1c12,248.2-108.1,412.4-338.3,466.4c-42,10-62.1,38-96.1,128.1c-120.1,330.3-108.1,534.5,40,696.7c94.1,102.1,266.3,184.2,466.4,222.2C1843.2,2684.5,2339.7,2668.5,2652,2614.5z M8347.4,2646.5c386.4-70.1,596.6-260.3,596.6-542.5c0-216.2-154.2-592.6-364.4-894.9c-140.1-202.2-402.4-514.5-562.5-674.6L7887,408.3l-206.2,174.2c-114.1,96.1-340.3,274.3-504.5,396.4C6994.1,1117,6878,1215.1,6874,1241.1c-4,24-24,178.2-42,342.3c-18,166.2-54.1,428.4-82.1,584.6c-26,156.1-48.1,288.3-48.1,294.3c0,28,708.7,170.2,980.9,198.2C7857,2678.5,8207.3,2670.5,8347.4,2646.5z M3841.1,2296.2c222.2-76.1,638.6-246.2,638.6-260.2c0-8-88.1-62.1-194.2-122.1c-108.1-58.1-308.3-172.2-442.4-254.2c-136.1-82.1-250.2-146.1-254.2-142.1c-12,14,94.1,706.7,120.1,792.8C3719,2340.2,3713,2340.2,3841.1,2296.2z M6317.5,2182c38-208.2,102.1-658.6,94.1-664.6c-4-4-118.1,60.1-254.3,142.1c-134.1,82.1-334.3,196.2-440.4,254.2c-108.1,60.1-196.2,114.1-196.2,120.1c0,8,52.1,34,116.1,60.1c386.4,152.1,616.6,238.2,634.6,232.2C6283.4,2324.2,6303.5,2258.1,6317.5,2182z M5314.5,1643.5c316.3-166.2,700.7-390.4,970.9-566.5l174.2-114.1l14-110.1c20-142.1,20-1337.3,0-1481.4l-14-112.1l-254.3-162.1c-320.3-204.2-688.7-414.4-980.9-562.5l-224.2-114.1L4744-1449.4c-298.3,152.1-712.7,392.4-999,578.5c-200.2,130.1-206.2,134.1-218.2,222.2c-20,120.1-20,1361.3,0,1501.4l14,110.1L3715,1077c402.4,262.2,1213.2,714.7,1283.2,716.7C5014.2,1793.7,5156.4,1725.6,5314.5,1643.5z M3088.4,112.1c0-286.3-4-520.5-10-520.5c-28,0-640.6,498.5-640.6,520.5c0,24,610.6,520.5,640.6,520.5C3084.4,632.6,3088.4,398.3,3088.4,112.1z M7040.2,548.5c170.2-126.1,522.5-420.4,522.5-434.4c0-22-614.6-522.5-640.6-522.5c-6,0-10,234.2-10,520.5c0,286.3,4,520.5,8,520.5C6924.1,632.6,6978.1,594.5,7040.2,548.5z M2323.7-360.4c112.1-96.1,336.3-272.3,500.5-394.4c186.2-138.1,298.3-234.2,302.3-262.3c4-22,24-176.2,42-342.3c18-164.2,54.1-430.4,82.1-588.6c28-158.1,46-290.3,44-294.3c-16-14-434.4-110.1-656.6-150.1c-326.3-60.1-882.9-66.1-1075-14c-342.3,94.1-506.5,266.3-506.5,534.5c0,276.3,218.2,726.7,562.5,1153.1c120.1,150.1,472.5,530.5,492.5,530.5C2115.5-188.2,2211.6-266.3,2323.7-360.4z M8075.2-374.4C8705.8-1033,9026.1-1663.6,8922-2038c-44-158.1-254.2-314.3-492.5-368.3c-78.1-18-86.1-16-150.1,50c-158.1,162.1-438.4,154.1-602.6-20l-54.1-58.1l-264.3,44c-240.2,40-630.6,128.1-650.6,146.1c-4,6,14,138.1,42.1,296.3c28,158.2,64,424.4,82.1,588.6c18,166.2,38,318.3,42,342.3c4,26,116.1,124.1,302.3,262.3c164.2,122.1,386.4,298.3,496.5,392.4c110.1,94.1,206.2,172.2,212.2,172.2C7893-188.2,7979.1-272.3,8075.2-374.4z M3845.1-1437.4c136.1-82.1,334.3-196.2,440.4-252.2c106.1-56.1,194.2-110.1,194.2-120.1c0-8-52.1-34-114.1-60.1C3925.2-2042,3731-2110,3717-2096c-14,16-82.1,398.4-108.1,616.6c-6,56.1-16,120.1-22,146.1c-4,24-4,44,2,44C3594.9-1289.3,3711-1355.3,3845.1-1437.4z M6409.6-1363.3c-44-312.3-114.1-718.7-126.1-732.7c-24-24-762.7,252.2-762.7,286.3c0,10,92.1,66.1,206.2,128.1c112.1,60.1,308.3,172.2,434.4,250.2c126.1,78.1,236.2,140.1,244.2,142.1C6413.6-1289.3,6413.6-1323.3,6409.6-1363.3z M5276.5-2180.1c136.1-60.1,394.4-166.2,576.5-234.2l332.3-122.1l-14-72.1c-8-38-58.1-204.2-112.1-368.3C5833-3657.5,5520.7-4156,5218.4-4314.1c-122.1-64.1-314.3-64.1-436.4,0c-214.2,112.1-436.4,396.4-632.6,806.8c-104.1,220.2-292.3,748.7-320.3,898.8l-14,72.1l238.2,86.1c234.2,86.1,788.8,316.3,860.8,358.3C4976.2-2056,5024.3-2066,5276.5-2180.1z"/><path d="M4722,1141c-168.2-46-342.3-146.1-472.4-278.3c-416.4-416.4-416.4-1085,0-1501.4c416.4-416.4,1085-416.4,1501.4,0c416.4,416.4,416.4,1085,0,1501.4c-134.1,134.1-304.3,234.2-480.5,280.3C5124.4,1181.1,4866.1,1179.1,4722,1141z"/></g></g>
</svg>